<?xml version="1.0" standalone="no"?>
<!DOCTYPE svg PUBLIC "-//W3C//DTD SVG 20010904//EN"
 "http://www.w3.org/TR/2001/REC-SVG-20010904/DTD/svg10.dtd">
<svg version="1.0" xmlns="http://www.w3.org/2000/svg"
 width="1083.000000pt" height="1083.000000pt" viewBox="0 0 1083.000000 1083.000000"
 preserveAspectRatio="xMidYMid meet">
<metadata>
Created by potrace 1.11, written by Peter Selinger 2001-2013
</metadata>
<g transform="translate(0.000000,1083.000000) scale(0.100000,-0.100000)"
fill="#000000" stroke="none">
<path d="M10805 10784 c-35 -7 -1210 -102 -1825 -149 -916 -69 -2085 -153
-3940 -285 -3028 -215 -3988 -285 -4654 -340 -198 -17 -365 -30 -373 -30 -11
0 -13 -764 -13 -4649 l0 -4648 88 -7 c655 -51 1622 -111 4427 -276 4108 -241
5485 -329 6248 -397 l67 -6 0 5397 c0 2968 -1 5395 -2 5395 -2 -1 -12 -3 -23
-5z m-5069 -3904 c331 -27 622 -125 865 -291 49 -34 91 -64 94 -68 2 -4 -77
-122 -177 -262 -99 -139 -186 -262 -193 -272 -12 -17 -17 -15 -85 28 -218 142
-476 225 -694 225 -189 0 -286 -63 -286 -186 0 -123 86 -171 480 -264 357 -84
570 -164 725 -271 211 -146 307 -339 306 -614 -1 -448 -283 -758 -786 -867
-119 -25 -410 -35 -566 -19 -315 33 -632 140 -864 291 -121 80 -207 150 -201
167 6 15 402 489 416 498 5 3 40 -17 77 -44 211 -152 449 -246 692 -272 241
-26 401 19 440 124 33 87 -1 164 -96 214 -78 41 -144 61 -432 134 -519 129
-729 241 -872 462 -79 122 -118 317 -98 497 53 484 451 784 1060 798 36 1 124
-3 195 -8z m-3471 -798 l540 -694 5 694 5 693 365 0 365 0 3 -1327 2 -1328
-327 0 -328 1 -560 720 -560 720 -3 -720 -2 -721 -365 0 -365 0 0 1330 0 1330
343 -2 342 -3 540 -693z m6550 688 c434 -36 738 -210 880 -505 72 -149 89
-231 90 -430 0 -147 -3 -182 -23 -254 -89 -326 -315 -545 -667 -645 -155 -45
-266 -56 -547 -56 l-258 0 0 -380 0 -380 -370 0 -370 0 0 1330 0 1330 573 0
c314 0 626 -5 692 -10z"/>
<path d="M8290 5805 l0 -345 218 0 c285 0 362 20 456 116 64 66 81 115 81 234
0 95 -3 110 -27 155 -47 90 -133 150 -246 174 -29 6 -149 11 -267 11 l-215 0
0 -345z"/>
</g>
</svg>
