<?xml version="1.0" encoding="UTF-8"?>
<svg width="10px" height="12px" viewBox="0 0 10 12" version="1.1" xmlns="http://www.w3.org/2000/svg" xmlns:xlink="http://www.w3.org/1999/xlink">
    <!-- Generator: sketchtool 57.1 (101010) - https://sketch.com -->
    <title>529165F8-AE55-42D2-A127-C3AC72B572F2</title>
    <desc>Created with sketchtool.</desc>
    <g id="Page-1" stroke="none" stroke-width="1" fill-rule="evenodd">
        <g id="(D)-Article-page-+" transform="translate(-842.000000, -5656.000000)">
            <g id="material" transform="translate(0.000000, 224.000000)">
                <g id="16-comments" transform="translate(100.000000, 5028.000000)">
                    <g id="comment-3" transform="translate(64.000000, 398.000000)">
                        <g id="review" transform="translate(671.000000, 0.000000)">
                            <g id="dislike">
                                <path d="M11.535123,6.92122695 L7.74491373,10.2622194 C7.43228067,10.5414906 7.43027659,10.9896732 7.67449637,11.2728007 C7.91871378,11.5559259 8.39665683,11.5896452 8.6776606,11.3435683 L11.2908321,9.03917797 L11.2908321,16.5340676 C11.2908321,16.9294639 11.6090202,17.25 12.0014964,17.25 C12.3939963,17.25 12.7121607,16.9294639 12.7121607,16.5340676 L12.7121607,9.03917797 L15.3253325,11.3435683 C15.6063363,11.5896452 16.0772224,11.549602 16.3284967,11.2728007 C16.5917362,10.9828315 16.539166,10.5081985 16.2580794,10.2622194 L12.4678699,6.92122695 C12.1572788,6.68666428 11.8070184,6.69927143 11.535123,6.92122695 L11.535123,6.92122695 Z" id="arrow_down" transform="translate(12.000000, 12.000000) scale(1, -1) translate(-12.000000, -12.000000) "></path>
                            </g>
                        </g>
                    </g>
                </g>
            </g>
        </g>
    </g>
</svg>