<?xml version="1.0" encoding="UTF-8"?>
<svg width="16px" height="16px" viewBox="0 0 16 16" version="1.1" xmlns="http://www.w3.org/2000/svg" xmlns:xlink="http://www.w3.org/1999/xlink">
    <!-- Generator: sketchtool 53.1 (72631) - https://sketchapp.com -->
    <title>D7745022-6F41-4038-8ACB-3C9B91713686</title>
    <desc>Created with sketchtool.</desc>
    <g id="Page-1" stroke="none" stroke-width="1" fill-rule="evenodd">
        <g id="UI-KIT.-Icons" transform="translate(-112.000000, -190.000000)">
            <g id="UI-icons" transform="translate(112.000000, 118.000000)">
                <path d="M13.3894737,73.546724 L11.7221053,73.546724 L11.7221053,72.7046187 C11.7221053,72.3265306 11.4189474,72 11.0315789,72 C10.6442105,72 10.3578947,72.3265306 10.3578947,72.7046187 L10.3578947,73.546724 L5.64210526,73.546724 L5.64210526,72.7046187 C5.64210526,72.3265306 5.33894737,72 4.95157895,72 C4.56421053,72 4.26105263,72.3093448 4.26105263,72.7046187 L4.26105263,73.546724 L2.61052632,73.546724 C1.16210526,73.546724 0,74.7497315 0,76.2105263 L0,85.3361976 C0,86.8141783 1.17894737,88 2.61052632,88 L13.3894737,88 C14.8378947,88 16,86.7969925 16,85.3361976 L16,76.2105263 C16,74.7497315 14.8210526,73.546724 13.3894737,73.546724 Z M2.61052632,74.9387755 L4.27789474,74.9387755 L4.27789474,75.7808808 C4.27789474,76.1589689 4.58105263,76.4854995 4.96842105,76.4854995 C5.35578947,76.4854995 5.65894737,76.1761547 5.65894737,75.7808808 L5.65894737,74.9387755 L10.3747368,74.9387755 L10.3747368,75.7808808 C10.3747368,76.1589689 10.6778947,76.4854995 11.0652632,76.4854995 C11.4526316,76.4854995 11.7557895,76.1761547 11.7557895,75.7808808 L11.7557895,74.9387755 L13.3894737,74.9387755 C14.08,74.9387755 14.6357895,75.5059076 14.6357895,76.2105263 L14.6357895,78.2728249 L1.36421053,78.2728249 L1.36421053,76.2105263 C1.36421053,75.5059076 1.92,74.9387755 2.61052632,74.9387755 Z" id="calendar"></path>
            </g>
        </g>
    </g>
</svg>