<?xml version="1.0" encoding="UTF-8"?>
<svg width="32px" height="32px" viewBox="0 0 32 32" version="1.1" xmlns="http://www.w3.org/2000/svg" xmlns:xlink="http://www.w3.org/1999/xlink">
    <!-- Generator: sketchtool 57.1 (101010) - https://sketch.com -->
    <title>8D7EF22C-C062-4C73-8A37-315457E4A393</title>
    <desc>Created with sketchtool.</desc>
    <g id="Page-1" stroke="none" stroke-width="1" fill="none" fill-rule="evenodd">
        <g id="(D)-Article-page-2-+" transform="translate(-100.000000, -484.000000)">
            <g id="material" transform="translate(0.000000, 224.000000)">
                <g id="1-preview-announce" transform="translate(100.000000, 48.000000)">
                    <g id="share" transform="translate(0.000000, 212.000000)">
                        <g id="copy-link">
                            <rect id="container" stroke="#D7DDEA" x="0.5" y="0.5" width="31" height="31" rx="4"></rect>
                            <path d="M11.5288541,13.6685173 C13.489023,11.7474814 16.6120429,12.0339517 17.7543325,14.7710667 C18.1975409,15.8254698 16.7331256,16.7426561 16.2762097,15.6834383 C15.4514766,13.7190709 13.6923506,13.9670241 12.435832,15.2669732 C11.5402769,16.1937887 10.6584294,17.1398627 9.76972803,18.0763075 C9.51596469,18.3132093 9.27638572,18.566463 9.05237015,18.8346112 C8.75034385,19.2703902 8.62983834,19.8170188 8.71863818,20.3484624 C8.80743802,20.879906 9.09787843,21.3502929 9.52299348,21.6511675 C11.5402769,23.170182 12.8904633,20.9795271 14.1972426,19.6049513 C14.9785687,18.7840576 16.1893957,20.0599335 15.4080696,20.8832346 C14.526222,21.8076428 13.5895445,23.1918478 12.3855713,23.7334933 C11.181598,24.2751387 9.73545935,23.9357076 8.66856084,23.2135136 C7.75178248,22.5997128 7.14719667,21.582378 7.02345133,20.4452925 C6.89970599,19.3082071 7.27004506,18.1730683 8.03116323,17.3565209 C9.17116827,16.1143474 10.3340191,14.8481007 11.5288541,13.6685173 Z M19.61398,8.26650673 C20.8156687,7.72486129 22.2618073,8.06429243 23.3287058,8.78648636 C24.2465263,9.39929052 24.8521711,10.4165354 24.9763969,11.5539585 C25.1006226,12.6913816 24.7301069,13.8270024 23.968388,14.6434791 C22.828383,15.8880599 21.6723859,17.1518993 20.4706972,18.3314827 C18.5105282,20.2525186 15.3852238,19.9660483 14.2429342,17.2289333 C13.7997258,16.1745302 15.2664257,15.2573439 15.7233415,16.318969 C16.5480747,18.2809291 18.3072007,18.0401978 19.5614347,16.7354341 C20.4592743,15.8062113 21.3411219,14.8601373 22.2298232,13.9236925 C22.4830331,13.6861729 22.7225774,13.4329557 22.9471811,13.1653888 C23.246329,12.7298653 23.3651286,12.1851525 23.2764357,11.65571 C23.1877428,11.1262674 22.8991359,10.657334 22.4765578,10.3560545 C20.4569897,8.82981799 19.109088,11.0204729 17.8023087,12.3950487 C17.018698,13.2255717 15.8170093,11.9400665 16.5891971,11.1191727 C17.4733292,10.1923572 18.4122913,8.80815217 19.61398,8.26650673 Z" id="link" fill="#ADB6C7"></path>
                        </g>
                    </g>
                </g>
            </g>
        </g>
    </g>
</svg>