<?xml version="1.0" encoding="UTF-8"?>
<svg width="127px" height="254px" viewBox="0 0 127 254" version="1.1" xmlns="http://www.w3.org/2000/svg" xmlns:xlink="http://www.w3.org/1999/xlink">
    <!-- Generator: sketchtool 53.1 (72631) - https://sketchapp.com -->
    <title>371E6406-4CB6-46F3-9D70-5D8B0A50161F</title>
    <desc>Created with sketchtool.</desc>
    <g id="Page-1" stroke="none" stroke-width="1" fill-rule="evenodd">
        <g id="UI-KIT.-Icons" transform="translate(-112.000000, -739.000000)">
            <g id="graphic" transform="translate(112.000000, 580.000000)">
                <path d="M127,344.763794 C123.561657,345.281996 120.279315,345.343114 117.2596,345.398156 C110.114961,345.531551 105.392775,345.62226 99.9129058,351.102129 L127,378.189223 L127,413 L-2.20268248e-13,286 L127,159 L127,193.810777 L34.8107769,286 L45.0074959,296.196719 C55.2789161,285.925299 65.8491413,285.727874 74.349075,285.573136 C81.4830432,285.439741 86.2052286,285.349032 91.685098,279.869163 C97.1703032,274.383957 97.2610118,269.661772 97.3944069,262.517132 C97.554481,254.022534 97.7572415,243.446973 108.033998,233.170217 C114.430033,226.774182 120.944001,224.28235 127,223.273872 L127,245.295839 C125.750921,246.060344 124.501141,247.05312 123.20902,248.34524 C117.718479,253.835781 117.633107,258.552631 117.494376,265.702606 C117.334302,274.197204 117.126205,284.76743 106.854785,295.03885 C96.5833649,305.31027 86.0184755,305.513031 77.5292134,305.667769 C70.3845736,305.801164 65.6623882,305.891873 60.1825188,311.371742 L84.7432187,335.932442 C95.0146389,325.661022 105.579528,325.458261 114.079462,325.303523 C119.25133,325.206816 123.155632,325.132544 127,323.01106 L127,344.763794 Z" id="element"></path>
            </g>
        </g>
    </g>
</svg>