<?xml version="1.0" encoding="UTF-8"?>
<svg width="16px" height="10px" viewBox="0 0 16 10" version="1.1" xmlns="http://www.w3.org/2000/svg" xmlns:xlink="http://www.w3.org/1999/xlink">
    <!-- Generator: sketchtool 53.1 (72631) - https://sketchapp.com -->
    <title>C1B1A231-3174-489F-B2ED-8D9245E1893A</title>
    <desc>Created with sketchtool.</desc>
    <g id="Page-1" stroke="none" stroke-width="1"  fill-rule="evenodd">
        <g id="UI-KIT.-Icons" transform="translate(-112.000000, -347.000000)">
            <g id="decorative-icon" transform="translate(112.000000, 270.000000)">
                <path d="M8,84.1426825 C6.7950865,84.1426825 5.81831111,83.1833709 5.81831111,82 C5.81831111,80.8166291 6.7950865,79.8573175 8,79.8573175 C9.2049135,79.8573175 10.1816889,80.8166291 10.1816889,82 C10.1816889,83.1833709 9.2049135,84.1426825 8,84.1426825 Z M8,77 C12.3637333,77 16,81.6425952 16,82 C16,82.3572302 12.3635556,87 8,87 C3.63626667,87 0,82.356881 0,82 C0,81.6427698 3.63626667,77 8,77 Z M8,85.571254 C10.0087111,85.571254 11.6362667,83.9726228 11.6362667,82 C11.6362667,80.0268534 10.0087111,78.428746 8,78.428746 C5.99111111,78.428746 4.36373333,80.0268534 4.36373333,82 C4.36373333,83.9726228 5.99111111,85.571254 8,85.571254 Z" id="eye"></path>
            </g>
        </g>
    </g>
</svg>