<?xml version="1.0" encoding="UTF-8"?>
<svg width="48px" height="48px" viewBox="0 0 48 48" version="1.1" xmlns="http://www.w3.org/2000/svg" xmlns:xlink="http://www.w3.org/1999/xlink">
    <!-- Generator: sketchtool 53.1 (72631) - https://sketchapp.com -->
    <title>70DD75B5-9B69-442D-B0D0-54A89EB4039E</title>
    <desc>Created with sketchtool.</desc>
    <g id="Page-1" stroke="none" stroke-width="1" fill-rule="evenodd">
        <g id="UI-KIT.-Hovers" transform="translate(-325.000000, -1165.000000)">
            <g id="social" transform="translate(112.000000, 997.000000)">
                <g id="default" transform="translate(213.000000, 80.000000)">
                    <g id="facebook" transform="translate(0.000000, 88.000000)">
                        <rect id="Rectangle" x="0" y="0" width="48" height="48"></rect>
                        <path d="M25.2682927,15 C24.7262873,15 24.2059621,15.0655548 23.598916,15.3059224 C22.3631436,15.8085093 21.7344174,16.9884958 21.7344174,18.8240303 L21.7344174,20.6158617 L20,20.6158617 L20,23.6095312 L21.7344174,23.6095312 L21.7344174,32.2409139 L25.2682927,32.2409139 L25.2682927,23.6095312 L27.6747968,23.6095312 L28,20.6158617 L25.2682927,20.6158617 L25.2682927,19.2610624 C25.2682927,18.845882 25.3116531,18.5399595 25.4200542,18.3651467 C25.5718157,18.1029275 25.8753387,17.9718179 26.3523035,17.9718179 L27.9566395,17.9718179 L27.9566395,15 L25.2682927,15 Z"></path>
                    </g>
                </g>
            </g>
        </g>
    </g>
</svg>