<?xml version="1.0" encoding="UTF-8"?>
<svg width="32px" height="32px" viewBox="0 0 32 32" version="1.1" xmlns="http://www.w3.org/2000/svg" xmlns:xlink="http://www.w3.org/1999/xlink">
    <!-- Generator: sketchtool 57.1 (101010) - https://sketch.com -->
    <title>977111BD-B063-41DB-8B6D-082D6D299FC2</title>
    <desc>Created with sketchtool.</desc>
    <g id="Page-1" stroke="none" stroke-width="1" fill="none" fill-rule="evenodd">
        <g id="(D)-Article-page-2-+" transform="translate(-196.000000, -484.000000)">
            <g id="material" transform="translate(0.000000, 224.000000)">
                <g id="1-preview-announce" transform="translate(100.000000, 48.000000)">
                    <g id="share" transform="translate(0.000000, 212.000000)">
                        <g id="facebook" transform="translate(96.000000, 0.000000)">
                            <rect id="container" stroke="#D7DDEA" x="0.5" y="0.5" width="31" height="31" rx="4"></rect>
                            <path d="M17.5835384,9 C17.1119809,9 16.6592858,9.05703422 16.1311414,9.2661597 C15.0559905,9.70342205 14.5089838,10.730038 14.5089838,12.3269962 L14.5089838,13.8859316 L13,13.8859316 L13,16.4904943 L14.5089838,16.4904943 L14.5089838,24 L17.5835384,24 L17.5835384,16.4904943 L19.6772534,16.4904943 L19.9601879,13.8859316 L17.5835384,13.8859316 L17.5835384,12.7072243 C17.5835384,12.3460076 17.621263,12.0798479 17.7155744,11.9277567 C17.8476105,11.6996198 18.1116827,11.5855513 18.5266532,11.5855513 L19.9224633,11.5855513 L19.9224633,9 L17.5835384,9 Z" fill="#ADB6C7"></path>
                        </g>
                    </g>
                </g>
            </g>
        </g>
    </g>
</svg>