<?xml version="1.0" encoding="UTF-8"?>
<svg width="8px" height="18px" viewBox="0 0 8 18" version="1.1" xmlns="http://www.w3.org/2000/svg" xmlns:xlink="http://www.w3.org/1999/xlink">
    <!-- Generator: sketchtool 53.1 (72631) - https://sketchapp.com -->
    <title>C3CF83BA-8E7E-4F05-B7C9-510AF155FDFF</title>
    <desc>Created with sketchtool.</desc>
    <g id="Page-1" stroke="none" stroke-width="1" fill-rule="evenodd">
        <g id="UI-KIT.-Graphic" transform="translate(-216.000000, -498.000000)">
            <g id="social" transform="translate(112.000000, 426.000000)">
                <path d="M109.268293,72 C108.726287,72 108.205962,72.0655548 107.598916,72.3059224 C106.363144,72.8085093 105.734417,73.9884958 105.734417,75.8240303 L105.734417,77.6158617 L104,77.6158617 L104,80.6095312 L105.734417,80.6095312 L105.734417,89.2409139 L109.268293,89.2409139 L109.268293,80.6095312 L111.674797,80.6095312 L112,77.6158617 L109.268293,77.6158617 L109.268293,76.2610624 C109.268293,75.845882 109.311653,75.5399595 109.420054,75.3651467 C109.571816,75.1029275 109.875339,74.9718179 110.352303,74.9718179 L111.95664,74.9718179 L111.95664,72 L109.268293,72 Z" id="facebook"></path>
            </g>
        </g>
    </g>
</svg>