<?xml version="1.0" encoding="UTF-8"?>
<svg width="20px" height="19px" viewBox="0 0 20 19" version="1.1" xmlns="http://www.w3.org/2000/svg" xmlns:xlink="http://www.w3.org/1999/xlink">
    <!-- Generator: sketchtool 57.1 (101010) - https://sketch.com -->
    <title>93A6FB44-6110-4009-A44F-2BC8C418BFA0</title>
    <desc>Created with sketchtool.</desc>
    <g id="Mobile" stroke="none" stroke-width="1" fill-rule="evenodd">
        <g id="(M)-Index" transform="translate(-288.000000, -15.000000)">
            <g id="head">
                <g id="top">
                    <path d="M306.5,31 C307.328427,31 308,31.6715729 308,32.5 C308,33.3284271 307.328427,34 306.5,34 L289.5,34 C288.671573,34 288,33.3284271 288,32.5 C288,31.6715729 288.671573,31 289.5,31 L306.5,31 Z M306.5,23 C307.328427,23 308,23.6715729 308,24.5 C308,25.3284271 307.328427,26 306.5,26 L289.5,26 C288.671573,26 288,25.3284271 288,24.5 C288,23.6715729 288.671573,23 289.5,23 L306.5,23 Z M306.5,15 C307.328427,15 308,15.6715729 308,16.5 C308,17.3284271 307.328427,18 306.5,18 L289.5,18 C288.671573,18 288,17.3284271 288,16.5 C288,15.6715729 288.671573,15 289.5,15 L306.5,15 Z" id="icon-menu"></path>
                </g>
            </g>
        </g>
    </g>
</svg>