<?xml version="1.0" encoding="UTF-8"?>
<svg width="16px" height="16px" viewBox="0 0 16 16" version="1.1" xmlns="http://www.w3.org/2000/svg" xmlns:xlink="http://www.w3.org/1999/xlink">
    <!-- Generator: sketchtool 53.1 (72631) - https://sketchapp.com -->
    <title>20982A01-9B76-4D7A-AFC4-B6A6B53A56CD</title>
    <desc>Created with sketchtool.</desc>
    <g id="Page-1" stroke="none" stroke-width="1"  fill-rule="evenodd">
        <g id="UI-KIT.-Hovers" transform="translate(-328.000000, -510.000000)">
            <g id="elements" transform="translate(112.000000, 342.000000)">
                <g id="search" transform="translate(0.000000, 160.000000)">
                    <g id="hover" transform="translate(208.000000, 0.000000)">
                        <path d="M23.6064459,21.7864282 L20.0036633,18.1672804 C21.6872066,15.6254603 21.4178397,12.1578117 19.1787272,9.91899001 C16.6197414,7.36033666 12.4613896,7.36033666 9.9192393,9.91899001 C7.36025357,12.4776433 7.36025357,16.635455 9.9192393,19.1772751 C12.1583518,21.4160968 15.6264509,21.6854287 18.1686012,20.0021042 L21.7882192,23.621252 C22.2932822,24.1262493 23.1182183,24.1262493 23.6232813,23.621252 C24.1283443,23.1162546 24.1283443,22.2914256 23.6064459,21.7864282 Z M11.737466,17.3424513 C10.1886062,15.7937927 10.1886062,13.2856391 11.737466,11.7369805 C13.2863258,10.1883219 15.7948052,10.1883219 17.343665,11.7369805 C18.8925248,13.2856391 18.8925248,15.7937927 17.343665,17.3424513 C15.7948052,18.8911099 13.2863258,18.8911099 11.737466,17.3424513 Z" id="icon_search"></path>
                    </g>
                </g>
            </g>
        </g>
    </g>
</svg>