<?xml version="1.0" encoding="UTF-8"?>
<svg width="20px" height="20px" viewBox="0 0 20 20" version="1.1" xmlns="http://www.w3.org/2000/svg" xmlns:xlink="http://www.w3.org/1999/xlink">
    <!-- Generator: sketchtool 53.1 (72631) - https://sketchapp.com -->
    <title>2E224C7B-5265-441A-8134-4B2D6C73C1A6</title>
    <desc>Created with sketchtool.</desc>
    <g id="Page-1" stroke="none" stroke-width="1"  fill-rule="evenodd">
        <g id="UI-KIT.-Icons" transform="translate(-216.000000, -342.000000)">
            <g id="decorative-icon" transform="translate(112.000000, 270.000000)">
                <path d="M114,92 C119.527426,92 124,87.5274262 124,82 C124,76.4725738 119.527426,72 114,72 C108.472574,72 104,76.4725738 104,82 C104,87.5274262 108.472574,92 114,92 Z M110.687764,82.8016878 L114.295359,75.5654008 C114.400844,75.3333333 114.759494,75.4177215 114.759494,75.6708861 L114.759494,80.185654 C114.759494,80.3333333 114.864979,80.4388186 115.012658,80.4388186 L117.101266,80.3755274 C117.270042,80.3755274 117.396624,80.5443038 117.333333,80.7130802 L113.852321,88.4135021 C113.746835,88.6666667 113.388186,88.5822785 113.388186,88.3080169 L113.409283,83.3924051 C113.409283,83.2658228 113.303797,83.1392405 113.156118,83.1392405 L110.898734,83.1392405 C110.729958,83.1603376 110.603376,82.9704641 110.687764,82.8016878 Z" id="Important"></path>
            </g>
        </g>
    </g>
</svg>