<?xml version="1.0" encoding="UTF-8"?>
<svg width="18px" height="18px" viewBox="0 0 18 18" version="1.1" xmlns="http://www.w3.org/2000/svg" xmlns:xlink="http://www.w3.org/1999/xlink">
    <!-- Generator: sketchtool 53.1 (72631) - https://sketchapp.com -->
    <title>B89346AA-632C-47D0-B912-A9257F888FC4</title>
    <desc>Created with sketchtool.</desc>
    <g id="Page-1" stroke="none" stroke-width="1" fill-rule="evenodd">
        <g id="index" transform="translate(-1307.000000, -2970.000000)">
            <g id="footer" transform="translate(0.000000, 2845.000000)">
                <g id="3" transform="translate(1068.000000, 48.000000)">
                    <g id="social" transform="translate(0.000000, 62.000000)">
                        <g id="gray_insta" transform="translate(224.000000, 0.000000)">
                            <path d="M30.8604042,15 L17.1395958,15 C15.9578594,15 15,15.9554046 15,17.1346862 L15,30.8653138 C15,32.0441044 15.9578594,33 17.1395958,33 L30.8604042,33 C32.0421406,33 33,32.0441044 33,30.8653138 L33,17.1346862 C33,15.9554046 32.0421406,15 30.8604042,15 L30.8604042,15 Z M27.9377301,17.8122085 C27.9377301,17.5019229 28.1895917,17.2500614 28.4998773,17.2500614 L30.1873005,17.2500614 C30.4980771,17.2500614 30.7499386,17.5019229 30.7499386,17.8122085 L30.7499386,19.5001227 C30.7499386,19.8104083 30.4980771,20.0622699 30.1873005,20.0622699 L28.4998773,20.0622699 C28.1895917,20.0622699 27.9377301,19.8104083 27.9377301,19.5001227 L27.9377301,17.8122085 L27.9377301,17.8122085 Z M24.0208657,20.5674658 C25.9326569,20.5674658 27.4826119,22.1139841 27.4826119,24.0208657 C27.4826119,25.9282383 25.9326569,27.4742656 24.0208657,27.4742656 C22.1095655,27.4742656 20.5596105,25.9282383 20.5596105,24.0208657 C20.5596105,22.1139841 22.1095655,20.5674658 24.0208657,20.5674658 L24.0208657,20.5674658 Z M31.3125767,30.7499386 C31.3125767,31.0602242 31.0607152,31.3125767 30.7499386,31.3125767 L17.2500614,31.3125767 C16.9392848,31.3125767 16.6874233,31.0602242 16.6874233,30.7499386 L16.6874233,22.3123312 L18.9374847,22.3123312 C18.6443826,22.7340643 18.5452091,23.5210703 18.5452091,24.0208657 C18.5452091,27.0328942 21.0019638,29.4837575 24.0208657,29.4837575 C27.0402586,29.4837575 29.4970133,27.0328942 29.4970133,24.0208657 C29.4970133,23.5210703 29.4258244,22.7463383 29.0625153,22.3123312 L31.3125767,22.3123312 L31.3125767,30.7499386 L31.3125767,30.7499386 Z" id="Instagram"></path>
                        </g>
                    </g>
                </g>
            </g>
        </g>
    </g>
</svg>