<?xml version="1.0" encoding="UTF-8"?>
<svg width="248px" height="48px" viewBox="0 0 248 48" version="1.1" xmlns="http://www.w3.org/2000/svg" xmlns:xlink="http://www.w3.org/1999/xlink">
    <title>login-google</title>
    <g id="Desktop" stroke="none" stroke-width="1" fill="none" fill-rule="evenodd">
        <g id="(D)-Login" transform="translate(-760.000000, -378.000000)">
            <g id="login" transform="translate(392.000000, 193.000000)">
                <g id="login-google" transform="translate(368.000000, 185.000000)">
                    <rect id="Rectangle" x="0" y="0" width="248" height="48"></rect>
                    <g transform="translate(16.000000, 13.000000)">
                        <g id="Google__G__Logo" transform="translate(0.000000, 3.000000)" fill-rule="nonzero">
                            <path d="M15.6630037,8.18754579 C15.6630037,7.64542125 15.6190476,7.1003663 15.5252747,6.56703297 L8.0029304,6.56703297 L8.0029304,9.63809524 L12.3106227,9.63809524 C12.1318681,10.6285714 11.5575092,11.5047619 10.7164835,12.0615385 L10.7164835,14.0542125 L13.2864469,14.0542125 C14.7956044,12.6652015 15.6630037,10.6139194 15.6630037,8.18754579 Z" id="Path" fill="#4285F4"></path>
                            <path d="M8.0029304,15.9794872 C10.1538462,15.9794872 11.9677656,15.2732601 13.2893773,14.0542125 L10.7194139,12.0615385 C10.0043956,12.5479853 9.08131868,12.8234432 8.00586081,12.8234432 C5.92527473,12.8234432 4.16117216,11.4197802 3.52820513,9.53260073 L0.876190476,9.53260073 L0.876190476,11.5868132 C2.23003663,14.2798535 4.98754579,15.9794872 8.0029304,15.9794872 Z" id="Path" fill="#34A853"></path>
                            <path d="M3.52527473,9.53260073 C3.19120879,8.54212454 3.19120879,7.46959707 3.52527473,6.47912088 L3.52527473,4.42490842 L0.876190476,4.42490842 C-0.254945055,6.67838828 -0.254945055,9.33333333 0.876190476,11.5868132 L3.52527473,9.53260073 L3.52527473,9.53260073 Z" id="Path" fill="#FBBC04"></path>
                            <path d="M8.0029304,3.18534799 C9.13992674,3.16776557 10.2388278,3.5956044 11.0622711,4.38095238 L13.3391941,2.1040293 C11.8974359,0.75018315 9.98388278,0.00586080586 8.0029304,0.0293040293 C4.98754579,0.0293040293 2.23003663,1.72893773 0.876190476,4.42490842 L3.52527473,6.47912088 C4.15531136,4.58901099 5.92234432,3.18534799 8.0029304,3.18534799 Z" id="Path" fill="#EA4335"></path>
                        </g>
                        <text id="войти-через-Google" font-family="Montserrat-Medium, Montserrat" font-size="14" font-weight="400" line-spacing="22">
                            <tspan x="40" y="14" fill="#5E6470">войти через</tspan>
                            <tspan x="131.028" y="14" fill="#1A233A"> </tspan>
                            <tspan x="134.794" y="14" font-family="Montserrat-Bold, Montserrat" font-weight="bold" fill="#1A233A">Google</tspan>
                        </text>
                    </g>
                </g>
            </g>
        </g>
    </g>
</svg>