<?xml version="1.0" encoding="UTF-8"?>
<svg width="248px" height="49px" viewBox="0 0 248 49" version="1.1" xmlns="http://www.w3.org/2000/svg" xmlns:xlink="http://www.w3.org/1999/xlink">
    <!-- Generator: sketchtool 57.1 (101010) - https://sketch.com -->
    <title>33C5484A-E67F-4D05-9DDA-CE35AC84B24E</title>
    <desc>Created with sketchtool.</desc>
    <g id="Page-1" stroke="none" stroke-width="1" fill="none" fill-rule="evenodd">
        <g id="(D)-Login" transform="translate(-760.000000, -233.000000)">
            <g id="login" transform="translate(392.000000, 193.000000)">
                <g id="vk" transform="translate(368.000000, 40.000000)">
                    <rect id="Rectangle" stroke="#D7DDEA" x="0.5" y="0.5" width="247" height="47.2008368" rx="4"></rect>
                    <text id="войти-через-Вконтакт" font-family="Montserrat-Medium, Montserrat" font-size="14" font-weight="400" line-spacing="22">
                        <tspan x="56" y="27" fill="#5E6470">войти через</tspan>
                        <tspan x="147.028" y="27" fill="#1A233A"> </tspan>
                        <tspan x="150.794" y="27" font-family="Montserrat-Bold, Montserrat" font-weight="bold" fill="#1A233A">Вконтакте</tspan>
                    </text>
                    <path d="M33.0422134,28.5302303 C33.0203263,28.4823662 32.9999225,28.4426633 32.980969,28.4108542 C32.6673634,27.837722 32.0680714,27.1342427 31.1834557,26.3002157 L31.1647659,26.2811169 L31.1554045,26.2717514 L31.1459443,26.2621519 L31.1364511,26.2621519 C30.7349673,25.8737866 30.4807272,25.6126577 30.3742582,25.4789659 C30.1794496,25.2242925 30.1358072,24.9665084 30.2422762,24.7053126 C30.3174967,24.5079692 30.6000516,24.0912065 31.0892817,23.4544561 C31.3466202,23.1169988 31.5504276,22.8465379 31.7009346,22.6427724 C32.7864241,21.178417 33.2570303,20.2426745 33.1126544,19.835177 L33.0565851,19.7399504 C33.0189089,19.6826205 32.9216694,19.6301739 32.7649985,19.5823432 C32.6079649,19.5346129 32.407256,19.5267191 32.1625091,19.5585282 L29.452197,19.5775267 C29.4082909,19.5617392 29.3455961,19.5632109 29.2639149,19.5823432 C29.1823326,19.6014755 29.141525,19.6110751 29.141525,19.6110751 L29.0943556,19.6349904 L29.0569102,19.6637223 C29.0255298,19.6827208 28.991018,19.7161354 28.9533419,19.7638992 C28.9158635,19.8114958 28.8845161,19.867354 28.8594645,19.9310056 C28.5643839,20.7013476 28.2288911,21.4175705 27.85236,22.0796411 C27.6202048,22.4744284 27.4070031,22.8165684 27.2122933,23.106262 C27.0178473,23.3958551 26.8547156,23.6092202 26.7230633,23.7459893 C26.5912131,23.8828921 26.4722183,23.9925682 26.3653537,24.075419 C26.258654,24.1583033 26.1772035,24.1933234 26.1208046,24.1805128 C26.0642739,24.1677022 26.0110394,24.1549919 25.9606396,24.1422817 C25.8728604,24.0849517 25.8022546,24.0069843 25.7490201,23.9083126 C25.6955549,23.8096409 25.6595598,23.6854483 25.6407382,23.5358352 C25.6220154,23.3861217 25.61094,23.2573468 25.6077756,23.1490755 C25.604842,23.0409379 25.6061934,22.88798 25.6125552,22.6906366 C25.6190818,22.4931927 25.6220154,22.3596013 25.6220154,22.2895611 C25.6220154,22.0475979 25.6266632,21.7849973 25.6359916,21.5016924 C25.6454848,21.2183874 25.653165,20.9939176 25.6595927,20.8285505 C25.6659875,20.6630161 25.6689541,20.4878821 25.6689541,20.3032489 C25.6689541,20.1186157 25.6578787,19.9738191 25.6359916,19.8687254 C25.6143681,19.7637654 25.5811748,19.6618827 25.5374336,19.5631106 C25.4934286,19.4644389 25.4290197,19.3881104 25.3445038,19.3339246 C25.259823,19.2798057 25.1545407,19.2368584 25.02925,19.2049489 C24.6966909,19.1285871 24.2732211,19.0872787 23.7586429,19.0808567 C22.5917359,19.0681464 21.8419369,19.1446087 21.5094108,19.310143 C21.3776595,19.3800829 21.258434,19.475644 21.1518332,19.5965252 C21.0388705,19.7366391 21.0231144,19.8131013 21.1046638,19.8256777 C21.4811619,19.8829074 21.747697,20.0198102 21.9045658,20.2362525 L21.9610965,20.3509458 C22.0050686,20.4336963 22.0489747,20.5801987 22.0929138,20.7902525 C22.1367869,21.0003062 22.1651017,21.2326697 22.1775616,21.4872094 C22.208876,21.9520368 22.208876,22.3499348 22.1775616,22.6809366 C22.1461483,23.0120723 22.116482,23.2698563 22.0881671,23.4544895 C22.0598523,23.6391228 22.0175284,23.7887359 21.9610965,23.9032954 C21.9045658,24.0178884 21.8669555,24.0879286 21.8481009,24.1133491 C21.8292793,24.1387696 21.8135892,24.1547913 21.8011293,24.1610795 C21.71958,24.1927882 21.6347674,24.2089436 21.5469881,24.2089436 C21.459077,24.2089436 21.3524762,24.1643239 21.2270207,24.0751515 C21.1015982,23.985979 20.9714292,23.8634922 20.8365135,23.7074906 C20.7015978,23.5514554 20.5494427,23.3334076 20.3799823,23.0533137 C20.2106537,22.7732198 20.0349633,22.4421845 19.8530101,22.0602078 L19.7024701,21.7831911 C19.6083621,21.6049799 19.4798082,21.34549 19.3166765,21.0049555 C19.153446,20.6642871 19.009169,20.334757 18.8837465,20.0164319 C18.8336105,19.8827401 18.7582911,19.7809577 18.6579201,19.7109175 L18.6108167,19.6821856 C18.5795022,19.6567651 18.5292344,19.6297726 18.4602767,19.6010072 C18.3912202,19.5722754 18.3191641,19.5516714 18.2438117,19.5389946 L15.6651849,19.557993 C15.4016824,19.557993 15.2228935,19.6185675 15.1287525,19.739549 L15.0910763,19.7967786 C15.0722547,19.8286546 15.0627615,19.8795625 15.0627615,19.9496362 C15.0627615,20.0196764 15.0815831,20.1056379 15.1192593,20.2074203 C15.4956915,21.1051658 15.9050534,21.9709684 16.3473448,22.804962 C16.7896362,23.6389555 17.1739794,24.3107595 17.5001438,24.8197718 C17.8263741,25.3291521 18.1589002,25.8099008 18.4977222,26.2617839 C18.8365441,26.7138342 19.0608213,27.0035278 19.1705536,27.1307976 C19.2804177,27.2583015 19.3667137,27.3536284 19.4294414,27.4172801 L19.664761,27.6464326 C19.8153339,27.7992567 20.0364466,27.9822844 20.3281981,28.1955157 C20.6200155,28.4088808 20.9430814,28.6189345 21.2975606,28.8260114 C21.6521057,29.0327537 22.064566,29.2014657 22.5351722,29.3319465 C23.0057125,29.4625611 23.4636941,29.5149742 23.9091828,29.4896875 L24.991475,29.4896875 C25.2109725,29.4704548 25.3772686,29.4004146 25.4902971,29.2795334 L25.5277426,29.2316692 C25.5529259,29.1936723 25.5764942,29.1346365 25.5982494,29.0551974 C25.6202684,28.9756245 25.631212,28.8879571 25.631212,28.7925968 C25.6247843,28.5188914 25.64532,28.2722121 25.6922586,28.0525922 C25.7391643,27.8330393 25.7926296,27.6675049 25.8524236,27.5560226 C25.9121847,27.4446406 25.9796261,27.3506516 26.0546818,27.2744569 C26.1299023,27.198095 26.1834994,27.1518364 26.2149457,27.1359151 C26.2461941,27.1198935 26.2711468,27.1090229 26.2899684,27.1025005 C26.4405413,27.0515926 26.6177479,27.100895 26.821852,27.2506419 C27.0257912,27.400255 27.2170729,27.5849886 27.3959936,27.8045415 C27.5748154,28.0242952 27.7896652,28.2708407 28.0405761,28.5445461 C28.2916518,28.8183518 28.5111823,29.0218831 28.6993325,29.1557756 L28.8874827,29.2703686 C29.0131359,29.3468309 29.1762675,29.4168711 29.3770754,29.4805227 C29.5775206,29.5441533 29.753145,29.5600622 29.9039486,29.5282531 L32.313082,29.4901223 C32.5513682,29.4901223 32.7367825,29.450085 32.8683031,29.3706459 C33.0000873,29.291073 33.0783734,29.2034057 33.1036227,29.1080453 C33.128806,29.0125846 33.1301575,28.9042798 33.1084022,28.7831979 C33.0860866,28.662417 33.0641006,28.5779607 33.0422134,28.5302303 Z" fill="#4A76A8"></path>
                </g>
            </g>
        </g>
    </g>
</svg>