<?xml version="1.0" encoding="UTF-8"?>
<svg width="359px" height="90px" viewBox="0 0 359 90" version="1.1" xmlns="http://www.w3.org/2000/svg" xmlns:xlink="http://www.w3.org/1999/xlink">
    <!-- Generator: sketchtool 53.1 (72631) - https://sketchapp.com -->
    <title>9B2C0814-8619-43E3-8313-A8DCDF35C6CF</title>
    <desc>Created with sketchtool.</desc>
    <defs>
        <polygon id="path-1" points="0.790436 0.66896 90.085316 0.66896 90.085316 88.999264 0.790436 88.999264"></polygon>
    </defs>
    <g id="Page-1" stroke="none" stroke-width="1" fill-rule="evenodd">
        <g id="UI-KIT.-Icons" transform="translate(-496.000000, -821.000000)">
            <g id="graphic" transform="translate(112.000000, 580.000000)">
                <g id="logo-element" transform="translate(384.000000, 241.000000)">
                    <path d="M270,90 L359,90 L359,1 L270,1 L270,90 Z M314.073613,13.0982753 L346.905432,13.0982753 L346.905432,45.930095 L314.073613,13.0982753 Z M282.094568,26.4163889 L282.094568,13.0982753 L296.966214,13.0982753 L346.905432,63.033786 L346.905432,77.9054324 L333.583611,77.9054324 L282.094568,26.4163889 Z M282.094568,43.52008 L316.47992,77.9054324 L282.094568,77.9054324 L282.094568,43.52008 Z" id="Fill-1"></path>
                    <path d="M0,90 L89,90 L89,1 L0,1 L0,90 Z M12.0945676,63.033786 L62.0300783,13.0982753 L76.9017247,13.0982753 L76.9017247,26.4163889 L25.4126812,77.9054324 L12.0945676,77.9054324 L12.0945676,63.033786 Z M12.0945676,13.0982753 L44.930095,13.0982753 L12.0945676,45.930095 L12.0945676,13.0982753 Z M76.9017247,43.52008 L76.9017247,77.9054324 L42.52008,77.9054324 L76.9017247,43.52008 Z" id="Fill-2"></path>
                    <g id="Group-5" transform="translate(135.000000, 0.000000)">
                        <mask id="mask-2" fill="white">
                            <use xlink:href="#path-1"></use>
                        </mask>
                        <g id="Clip-4"></g>
                        <path d="M12.925076,57.568384 C16.745516,57.568384 18.423236,59.165504 20.960276,61.583264 C23.973476,64.457344 27.726956,68.030624 34.887956,68.030624 C42.048956,68.030624 45.806156,64.457344 48.823076,61.583264 C51.363836,59.165504 53.037836,57.568384 56.865716,57.568384 C60.689876,57.568384 62.367596,59.165504 64.904636,61.583264 C67.791356,64.328544 71.384876,67.684704 77.950676,67.975424 L77.950676,76.995104 L12.925076,76.995104 L12.925076,57.568384 Z M12.925076,30.167104 C16.745516,30.167104 18.423236,31.764224 20.960276,34.181984 C23.973476,37.056064 27.726956,40.629344 34.887956,40.629344 C42.048956,40.629344 45.806156,37.056064 48.823076,34.181984 C51.363836,31.764224 53.037836,30.167104 56.865716,30.167104 C60.689876,30.167104 62.367596,31.764224 64.904636,34.181984 C67.791356,36.927264 71.384876,40.283424 77.950676,40.574144 L77.950676,57.520544 C74.751476,57.281344 73.129556,55.772544 70.800836,53.553504 C67.783916,50.679424 64.026716,47.106144 56.865716,47.106144 C49.700996,47.106144 45.943796,50.679424 42.926876,53.553504 C40.389836,55.971264 38.712116,57.568384 34.887956,57.568384 C31.067516,57.568384 29.389796,55.971264 26.856476,53.557184 C23.839556,50.679424 20.086076,47.106144 12.925076,47.106144 L12.925076,30.167104 Z M12.925076,12.668704 L77.950676,12.668704 L77.950676,30.119264 C74.751476,29.880064 73.129556,28.371264 70.800836,26.152224 C67.783916,23.278144 64.026716,19.701184 56.865716,19.701184 C49.700996,19.701184 45.943796,23.278144 42.926876,26.152224 C40.389836,28.569984 38.712116,30.167104 34.887956,30.167104 C31.067516,30.167104 29.389796,28.569984 26.856476,26.155904 C23.839556,23.278144 20.086076,19.701184 12.925076,19.701184 L12.925076,12.668704 Z M0.790436,88.999264 L90.085316,88.999264 L90.085316,0.664544 L0.790436,0.664544 L0.790436,88.999264 Z" id="Fill-3" mask="url(#mask-2)"></path>
                    </g>
                </g>
            </g>
        </g>
    </g>
</svg>