<?xml version="1.0" encoding="utf-8"?>
<!-- Generator: Adobe Illustrator 23.0.6, SVG Export Plug-In . SVG Version: 6.00 Build 0)  -->
<svg version="1.1" id="Layer_1" xmlns="http://www.w3.org/2000/svg" xmlns:xlink="http://www.w3.org/1999/xlink" x="0px" y="0px"
	 viewBox="0 0 323.1 65.1" style="enable-background:new 0 0 323.1 65.1;" xml:space="preserve">
<style type="text/css">
	.st0{fill-rule:evenodd;clip-rule:evenodd;fill:#233271;}
</style>
<g>
	<path class="st0" d="M0,11.8c5.9-0.7,12.3-1.4,19-2.2c7.2-0.8,14.9-1.7,23.2-2.7c0,8.6-0.1,17.1-0.1,25.6S42,49.5,42,58
		c-8.2-0.9-15.9-1.7-23.1-2.4c-6.7-0.7-13-1.4-18.9-2c0-6.9,0-13.9,0-20.9C0,25.8,0,18.8,0,11.8L0,11.8z M11.9,42.3h5.3V31.6
		l8.3,10.7h4.7V22.8h-5.3v10.3l-8-10.3h-5V42.3z"/>
	<path class="st0" d="M94.5,11.8c5.9-0.7,12.3-1.4,19-2.2c7.2-0.8,14.9-1.7,23.2-2.7c0,8.6-0.1,17.1-0.1,25.6s-0.1,17-0.1,25.5
		c-8.2-0.9-15.9-1.7-23.1-2.4c-6.7-0.7-13-1.4-18.9-2c0-6.9,0-13.9,0-20.9C94.5,25.8,94.5,18.8,94.5,11.8L94.5,11.8z M107.4,42.3
		h5.4v-5.6h2.7c4.8,0,8.4-2.4,8.4-7c0-4.4-3.2-6.9-8.1-6.9h-8.4V42.3L107.4,42.3z M112.8,32.5h2.6c1.9,0,3.1-1,3.1-2.6
		c0-1.7-1.2-2.6-3.1-2.6h-2.5v5.2H112.8z"/>
	<path class="st0" d="M47.3,11.8c5.9-0.7,12.3-1.4,19-2.2c7.2-0.8,14.9-1.7,23.2-2.7c0,8.6-0.1,17.1-0.1,25.6s-0.1,17-0.1,25.5
		c-8.2-0.9-15.9-1.7-23.1-2.4c-6.7-0.7-13-1.4-18.9-2c0-6.9,0-13.9,0-20.9C47.3,25.8,47.3,18.8,47.3,11.8L47.3,11.8z M69,43.1
		c5,0,8.3-2.5,8.3-6.7c0-3.9-2.9-5.4-7.6-6.4c-2.8-0.6-3.5-1.1-3.5-2c0-0.8,0.7-1.4,2-1.4c1.8,0,3.9,0.7,5.7,2l2.8-4
		c-2.2-1.8-4.9-2.7-8.4-2.7c-4.9,0-7.9,2.7-7.9,6.5c0,4.3,3.4,5.5,7.7,6.5c2.8,0.6,3.4,1.1,3.4,2s-0.8,1.5-2.3,1.5
		c-2.4,0-4.6-0.8-6.6-2.5l-3.2,3.8C62,42,65.4,43.1,69,43.1z"/>
	<rect x="152.4" class="st0" width="2.7" height="65.1"/>
	<path class="st0" d="M169.3,21.9h1.9v-4.5h5.1v4.5h1.9V11.2h-1.9v4.4h-5.1v-4.4h-1.9V21.9L169.3,21.9z M169.3,38.1h1.8l5.4-7.8v7.8
		h1.8V27.4h-1.8l-5.4,7.8v-7.8h-1.8V38.1L169.3,38.1z M169.3,53.9h1.9v-9h5.1v9h1.9V43.2h-8.9V53.9L169.3,53.9z M181.1,53.9h8.3
		v-1.7h-6.5v-2.9h5.7v-1.7h-5.7v-2.8h6.4v-1.7h-8.2V53.9L181.1,53.9z M194.7,53.9h1.9V45h3.6v-1.7h-9V45h3.6v8.9H194.7z M202.3,53.9
		h8.3v-1.7h-6.5v-2.9h5.7v-1.7h-5.7v-2.8h6.4v-1.7h-8.3v10.8H202.3z M213.1,53.9h1.9v-3.4h2.6c2.3,0,4.3-1.2,4.3-3.6
		c0-2.2-1.6-3.6-4.1-3.6h-4.7V53.9L213.1,53.9z M214.9,48.7v-3.8h2.7c1.4,0,2.3,0.7,2.3,1.9c0,1.1-0.9,1.9-2.3,1.9H214.9L214.9,48.7
		z M223.8,53.9h5.1c2.4,0,4-1.2,4-3.3c0-2.1-1.5-3.2-3.9-3.2h-3.3v-2.5h6.5v-1.7h-8.3v10.7H223.8z M225.6,52.2v-3.3h3.2
		c1.4,0,2.2,0.5,2.2,1.6c0,1.3-0.9,1.7-2.5,1.7L225.6,52.2L225.6,52.2z M236.6,54c1.4,0,2.5-0.7,3.4-2.5l4.2-8.3h-2l-2.9,6.2
		l-3.3-6.2h-2.1l4.4,8.1c-0.5,0.9-1.2,1.2-1.7,1.2s-0.9-0.1-1.3-0.3l-0.7,1.4C235.1,53.8,235.8,54,236.6,54L236.6,54z M245.7,53.9
		h1.9v-3.4h2.6c2.3,0,4.3-1.2,4.3-3.6c0-2.2-1.6-3.6-4.1-3.6h-4.7V53.9L245.7,53.9z M247.6,48.7v-3.8h2.7c1.4,0,2.3,0.7,2.3,1.9
		c0,1.1-0.9,1.9-2.3,1.9H247.6L247.6,48.7z M256.6,53.9h1.9v-9h5.8v-1.7h-7.7V53.9L256.6,53.9z M263.7,53.9l4.7-10.7h1.7l4.7,10.7
		h-2l-1.1-2.6h-5l-1.1,2.6H263.7L263.7,53.9z M267.4,49.6h3.7l-1.8-4.3L267.4,49.6L267.4,49.6z M189,38.3c2,0,3.2-0.7,4.3-1.9
		l-1.2-1.2c-0.9,0.9-1.8,1.4-3.1,1.4c-2,0-3.5-1.7-3.5-3.8c0-2.1,1.5-3.8,3.5-3.8c1.2,0,2.1,0.5,3,1.3l1.2-1.4c-1-1-2.2-1.7-4.2-1.7
		c-3.2,0-5.5,2.5-5.5,5.5C183.5,35.9,185.9,38.3,189,38.3L189,38.3z M197.9,38.1h1.9v-8.9h3.4v-1.7h-8.7v1.7h3.4L197.9,38.1
		L197.9,38.1z M205.1,38.1h1.9v-3.4h2.1c2.3,0,4.3-1.2,4.3-3.6c0-2.2-1.6-3.6-4.1-3.6h-4.2V38.1L205.1,38.1z M207,33v-3.9h2.2
		c1.4,0,2.3,0.7,2.3,1.9c0,1.1-0.9,1.9-2.3,1.9H207V33z M220,38.3c3.3,0,5.6-2.5,5.6-5.5s-2.3-5.5-5.6-5.5s-5.6,2.5-5.6,5.5
		C214.5,35.8,216.8,38.3,220,38.3L220,38.3z M220.1,36.6c-2.1,0-3.6-1.7-3.6-3.8c0-2.1,1.5-3.8,3.6-3.8s3.6,1.7,3.6,3.8
		S222.2,36.6,220.1,36.6L220.1,36.6z M227.2,38.1h1.8l5.4-7.8v7.8h1.8V27.4h-1.8l-5.4,7.8v-7.8h-1.8V38.1L227.2,38.1z M241.6,38.1
		h1.9v-8.9h3.4v-1.7h-8.7v1.7h3.4L241.6,38.1L241.6,38.1z M248.8,38.1h8v-1.7h-6.1v-2.9h5.3v-1.7h-5.3v-2.7h6v-1.7h-7.9L248.8,38.1
		L248.8,38.1z M259,38.2c2.1,0,3.3-1.4,3.3-8.1v-1h3.7v9h1.9V27.4h-7.3v2.1c0,6.4-1,7.1-2.1,7.1c-0.2,0-0.5,0-0.6-0.1l-0.2,1.5
		C258,38.1,258.6,38.2,259,38.2L259,38.2z M270.7,38.1h4.3c2.5,0,4-1.3,4-3.5c0-2.1-1.6-3.3-4-3.3h-2.5v-3.8h-1.9v10.6H270.7z
		 M272.6,36.4v-3.5h2.4c1.4,0,2.2,0.6,2.2,1.7c0,1.2-0.8,1.8-2.2,1.8H272.6L272.6,36.4z M285.8,38.3c2,0,3.2-0.7,4.3-1.9l-1.2-1.2
		c-0.9,0.9-1.8,1.4-3.1,1.4c-2,0-3.5-1.7-3.5-3.8c0-2.1,1.5-3.8,3.5-3.8c1.2,0,2.1,0.5,3,1.3l1.2-1.4c-1-1-2.2-1.7-4.2-1.7
		c-3.2,0-5.5,2.5-5.5,5.5C280.3,35.9,282.7,38.3,285.8,38.3L285.8,38.3z M294.7,38.1h1.9v-8.9h3.4v-1.7h-8.7v1.7h3.4L294.7,38.1
		L294.7,38.1z M301.9,38.1h4.9c2.4,0,3.9-1,3.9-2.9c0-1.5-0.9-2.2-2.1-2.6c0.8-0.4,1.5-1.1,1.5-2.4c0-0.7-0.2-1.3-0.7-1.8
		c-0.6-0.6-1.6-0.9-2.8-0.9h-4.8L301.9,38.1L301.9,38.1z M303.8,31.9v-2.8h2.7c1.2,0,1.9,0.5,1.9,1.4c0,1-0.8,1.5-2,1.5h-2.6V31.9z
		 M303.8,36.4v-2.9h3c1.5,0,2.2,0.5,2.2,1.4c0,1-0.8,1.5-2.1,1.5H303.8L303.8,36.4z M317.5,38.3c3.3,0,5.6-2.5,5.6-5.5
		s-2.3-5.5-5.6-5.5s-5.6,2.5-5.6,5.5C311.9,35.8,314.2,38.3,317.5,38.3L317.5,38.3z M317.5,36.6c-2.1,0-3.6-1.7-3.6-3.8
		c0-2.1,1.5-3.8,3.6-3.8s3.6,1.7,3.6,3.8S319.6,36.6,317.5,36.6L317.5,36.6z M180.9,21.9h8.3v-1.7h-6.4v-2.9h5.6v-1.7h-5.6v-2.8h6.3
		v-1.7h-8.2L180.9,21.9L180.9,21.9z M190.9,23.7h1.6l0.2-1.8h7.5v1.8h1.6l0.3-3.5h-1.3v-9h-7.4v1.5c0,3.6-0.5,5.7-1.4,7.5h-1v3.5
		H190.9z M193.9,20.3c0.7-1.5,1.2-3.6,1.2-6.1V13h3.8v7.3L193.9,20.3L193.9,20.3z M204.1,21.9h5.2c2.4,0,3.9-1,3.9-2.9
		c0-1.5-0.9-2.2-2.1-2.6c0.8-0.4,1.5-1.1,1.5-2.4c0-0.7-0.2-1.3-0.7-1.8c-0.6-0.6-1.6-0.9-2.8-0.9h-5V21.9L204.1,21.9z M205.9,15.8
		V13h3c1.2,0,1.9,0.5,1.9,1.4c0,1-0.8,1.5-2,1.5h-2.9V15.8z M205.9,20.3v-2.9h3.3c1.5,0,2.2,0.5,2.2,1.4c0,1-0.8,1.5-2.1,1.5H205.9
		L205.9,20.3z M215.4,21.9h1.8l5.4-7.8v7.8h1.8V11.2h-1.8l-5.4,7.8v-7.8h-1.8V21.9L215.4,21.9z M235.1,21.9v-2.8l1.7-1.9l3.2,4.7
		h2.3l-4.2-6.1l4-4.5h-2.2l-4.7,5.5v-5.5h-1.9v5.5l-4.7-5.5h-2.2l4,4.5l-4.2,6.1h2.3l3.2-4.7l1.7,1.9v2.8H235.1L235.1,21.9z
		 M244,21.9h1.8l5.4-7.8v7.8h1.8V11.2h-1.8l-5.4,7.8v-7.8H244V21.9L244,21.9z M255.7,21.9h1.8v-7.6l3.3,5h0.1l3.4-5v7.6h1.9V11.2h-2
		l-3.2,5l-3.2-5h-2L255.7,21.9L255.7,21.9z M273.7,22.1c3.3,0,5.6-2.5,5.6-5.5s-2.3-5.5-5.6-5.5s-5.6,2.5-5.6,5.5
		S270.4,22.1,273.7,22.1L273.7,22.1z M273.7,20.4c-2.1,0-3.6-1.7-3.6-3.8c0-2.1,1.5-3.8,3.6-3.8s3.6,1.7,3.6,3.8
		C277.3,18.7,275.8,20.4,273.7,20.4L273.7,20.4z M286.2,22.1c2,0,3.2-0.7,4.3-1.9l-1.2-1.2c-0.9,0.9-1.8,1.4-3.1,1.4
		c-2,0-3.5-1.7-3.5-3.8c0-2.1,1.5-3.8,3.5-3.8c1.2,0,2.1,0.5,3,1.3l1.2-1.4c-1-1-2.2-1.7-4.2-1.7c-3.2,0-5.5,2.5-5.5,5.5
		C280.7,19.7,283,22.1,286.2,22.1L286.2,22.1z M295.2,21.9h1.9V13h3.5v-1.7h-9V13h3.5L295.2,21.9L295.2,21.9z M302.7,21.9h4.6
		c2.5,0,4-1.3,4-3.5c0-2.1-1.6-3.3-4-3.3h-2.7v-3.8h-1.9L302.7,21.9L302.7,21.9z M304.5,20.3v-3.5h2.7c1.4,0,2.2,0.6,2.2,1.7
		c0,1.2-0.8,1.8-2.2,1.8H304.5z"/>
</g>
</svg>
