<?xml version="1.0" encoding="utf-8"?>
<!-- Generator: Adobe Illustrator 23.0.6, SVG Export Plug-In . SVG Version: 6.00 Build 0)  -->
<svg version="1.1" id="Layer_1" xmlns="http://www.w3.org/2000/svg" xmlns:xlink="http://www.w3.org/1999/xlink" x="0px" y="0px"
	 viewBox="0 0 140 65.1" style="enable-background:new 0 0 140 65.1;" xml:space="preserve">
<style type="text/css">
	.st0{fill-rule:evenodd;clip-rule:evenodd;fill:#233271;}
</style>
<g>
	<path class="st0" d="M0,11.8c5.9-0.7,12.3-1.4,19-2.2c7.2-0.8,14.9-1.7,23.2-2.7c0,8.6-0.1,17.1-0.1,25.6S42,49.5,42,58
		c-8.2-0.9-15.9-1.7-23.1-2.4c-6.7-0.7-13-1.4-18.9-2c0-6.9,0-13.9,0-20.9C0,25.8,0,18.8,0,11.8L0,11.8z M11.9,42.3h5.3V31.6
		l8.3,10.7h4.7V22.8h-5.3v10.3l-8-10.3h-5V42.3z"/>
	<path class="st0" d="M94.5,11.8c5.9-0.7,12.3-1.4,19-2.2c7.2-0.8,14.9-1.7,23.2-2.7c0,8.6-0.1,17.1-0.1,25.6s-0.1,17-0.1,25.5
		c-8.2-0.9-15.9-1.7-23.1-2.4c-6.7-0.7-13-1.4-18.9-2c0-6.9,0-13.9,0-20.9C94.5,25.8,94.5,18.8,94.5,11.8L94.5,11.8z M107.4,42.3
		h5.4v-5.6h2.7c4.8,0,8.4-2.4,8.4-7c0-4.4-3.2-6.9-8.1-6.9h-8.4V42.3L107.4,42.3z M112.8,32.5h2.6c1.9,0,3.1-1,3.1-2.6
		c0-1.7-1.2-2.6-3.1-2.6h-2.5v5.2H112.8z"/>
	<path class="st0" d="M47.3,11.8c5.9-0.7,12.3-1.4,19-2.2c7.2-0.8,14.9-1.7,23.2-2.7c0,8.6-0.1,17.1-0.1,25.6s-0.1,17-0.1,25.5
		c-8.2-0.9-15.9-1.7-23.1-2.4c-6.7-0.7-13-1.4-18.9-2c0-6.9,0-13.9,0-20.9C47.3,25.8,47.3,18.8,47.3,11.8L47.3,11.8z M69,43.1
		c5,0,8.3-2.5,8.3-6.7c0-3.9-2.9-5.4-7.6-6.4c-2.8-0.6-3.5-1.1-3.5-2c0-0.8,0.7-1.4,2-1.4c1.8,0,3.9,0.7,5.7,2l2.8-4
		c-2.2-1.8-4.9-2.7-8.4-2.7c-4.9,0-7.9,2.7-7.9,6.5c0,4.3,3.4,5.5,7.7,6.5c2.8,0.6,3.4,1.1,3.4,2s-0.8,1.5-2.3,1.5
		c-2.4,0-4.6-0.8-6.6-2.5l-3.2,3.8C62,42,65.4,43.1,69,43.1z"/>
</g>
</svg>
