<?xml version="1.0" encoding="UTF-8"?>
<svg width="18px" height="13px" viewBox="0 0 18 13" version="1.1" xmlns="http://www.w3.org/2000/svg" xmlns:xlink="http://www.w3.org/1999/xlink">
    <!-- Generator: sketchtool 53.1 (72631) - https://sketchapp.com -->
    <title>0183FDB4-4BF7-49F4-B18B-5E8D0A5369C6</title>
    <desc>Created with sketchtool.</desc>
    <g id="Page-1" stroke="none" stroke-width="1"  fill-rule="evenodd">
        <g id="UI-KIT.-Icons" transform="translate(-320.000000, -192.000000)">
            <g id="UI-icons" transform="translate(112.000000, 118.000000)">
                <path d="M209.384509,74 C209.200723,74 209.025453,74.0395501 208.865275,74.1093753 L216.588894,81.5625333 C216.858111,81.8226091 217.156843,81.8223341 217.425437,81.5625333 L225.13461,74.1093753 C224.974432,74.0395501 224.799162,74 224.615376,74 L209.384509,74 Z M208.014308,75.289054 C208.005538,75.3574042 208,75.4289794 208,75.5000046 L208,85.5000454 C208,85.705196 208.039946,85.9003966 208.108185,86.0781722 L213.437535,80.5312801 L208.014423,75.289054 L208.014308,75.289054 Z M225.985577,75.289054 L220.576888,80.5234801 L225.899038,86.0703471 C225.965107,85.8949966 226,85.701721 226,85.5000454 L226,75.5000046 C226,75.4289794 225.994231,75.3574042 225.985692,75.289054 L225.985577,75.289054 Z M219.53842,81.5312832 L218.34852,82.6875367 C217.592054,83.419339 216.422185,83.418114 215.665811,82.6875367 L214.475888,81.5390832 L209.225854,86.99225 C209.277154,86.9985 209.331639,87 209.384509,87 L224.615376,87 C224.665776,87 224.717838,86.9975 224.766807,86.99225 L219.53842,81.5312832 L219.53842,81.5312832 Z" id="mail"></path>
            </g>
        </g>
    </g>
</svg>