<?xml version="1.0" encoding="UTF-8"?>
<svg width="13px" height="18px" viewBox="0 0 13 18" version="1.1" xmlns="http://www.w3.org/2000/svg" xmlns:xlink="http://www.w3.org/1999/xlink">
    <!-- Generator: sketchtool 57.1 (101010) - https://sketch.com -->
    <title>93304EFC-2AF9-4DAD-AAC4-209FB0D6F0B3</title>
    <desc>Created with sketchtool.</desc>
    <g id="Page-1" stroke="none" stroke-width="1" fill-rule="evenodd">
        <g id="(D)-Company-page-+" transform="translate(-130.000000, -469.000000)">
            <g id="company-info" transform="translate(100.000000, 280.000000)">
                <g id="card">
                    <g id="contacts" transform="translate(24.000000, 40.000000)">
                        <g id="address" transform="translate(0.000000, 146.000000)">
                            <path d="M12.5,21 C9.7,18.2542373 6,14.6949153 6,9.61016949 C6,5.94915254 8.9,3 12.5,3 C16.1,3 19,5.94915254 19,9.61016949 C19,14.6949153 15.3,18.2542373 12.5,21 Z M12.5,6.3559322 C14.4,6.3559322 15.9,7.88135593 15.9,9.81355932 C15.9,11.7457627 14.4,13.2711864 12.5,13.2711864 C10.6,13.2711864 9.1,11.7457627 9.1,9.81355932 C9.1,7.88135593 10.6,6.3559322 12.5,6.3559322 Z" id="map-pin"></path>
                        </g>
                    </g>
                </g>
            </g>
        </g>
    </g>
</svg>