<?xml version="1.0" encoding="UTF-8"?>
<svg width="15px" height="16px" viewBox="0 0 15 16" version="1.1" xmlns="http://www.w3.org/2000/svg" xmlns:xlink="http://www.w3.org/1999/xlink">
    <!-- Generator: sketchtool 53.1 (72631) - https://sketchapp.com -->
    <title>4A0BC681-29F2-42EF-BFAE-EB726AD6BC33</title>
    <desc>Created with sketchtool.</desc>
    <g id="Page-1" stroke="none" stroke-width="1"  fill-rule="evenodd">
        <g id="UI-KIT.-Icons" transform="translate(-216.000000, -190.000000)">
            <g id="UI-icons" transform="translate(112.000000, 118.000000)">
                <path d="M104.468019,84.4051948 C103.823864,83.761039 103.844643,82.7012987 104.530357,82.0779221 L105.049838,81.6207792 C105.382305,81.3298701 105.569318,80.8935065 105.569318,80.4363636 C105.569318,80.4363636 105.569318,79.2727273 105.569318,77.9012987 C105.569318,75.1792208 107.64724,72 111.179708,72 L111.491396,72 C115.023864,72 117.101786,75.2 117.101786,77.9012987 C117.101786,79.2727273 117.101786,80.4363636 117.101786,80.4363636 C117.101786,80.8935065 117.288799,81.3090909 117.621266,81.6207792 L118.140747,82.0779221 C118.826461,82.7012987 118.84724,83.761039 118.203084,84.4051948 C117.891396,84.7168831 117.496591,84.8831169 117.060227,84.8831169 L112.426461,84.8831169 L110.244643,84.8831169 L105.610877,84.8831169 C105.174513,84.8831169 104.779708,84.7168831 104.468019,84.4051948 Z M111.325162,88 C110.119968,88 109.143344,87.0233766 109.143344,85.8181818 L113.506981,85.8181818 C113.506981,87.0233766 112.530357,88 111.325162,88 Z" id="notification"></path>
            </g>
        </g>
    </g>
</svg>