<?xml version="1.0" encoding="UTF-8"?>
<svg width="20px" height="20px" viewBox="0 0 20 20" version="1.1" xmlns="http://www.w3.org/2000/svg" xmlns:xlink="http://www.w3.org/1999/xlink">
    <!-- Generator: sketchtool 53.1 (72631) - https://sketchapp.com -->
    <title>40680A72-ED1E-486A-A57D-C2164E69DE63</title>
    <desc>Created with sketchtool.</desc>
    <g id="Page-1" stroke="none" stroke-width="1"  fill-rule="evenodd">
        <g id="UI-KIT.-Icons" transform="translate(-320.000000, -342.000000)">
            <g id="decorative-icon" transform="translate(112.000000, 270.000000)">
                <path d="M218,72 C223.471698,72 228,76.5283019 228,82 C228,87.4716981 223.471698,92 218,92 L208,92 L208,82 C208,76.5283019 212.528302,72 218,72 Z M216.547363,83.6845703 L218.358887,83.6845703 L218.358887,83.2744141 C218.358887,83.0009752 218.416992,82.7799488 218.533203,82.6113281 C218.649415,82.4427075 218.926267,82.1966162 219.36377,81.8730469 C220.001794,81.4173154 220.434732,81.0071633 220.662598,80.6425781 C220.890463,80.277993 221.004395,79.8450546 221.004395,79.34375 C221.004395,78.5917931 220.727542,77.9902366 220.173828,77.5390625 C219.620114,77.0878884 218.873865,76.8623047 217.935059,76.8623047 C216.79573,76.8623047 215.717941,77.1471326 214.70166,77.7167969 L215.446777,79.2138672 C216.321782,78.7672504 217.101071,78.5439453 217.784668,78.5439453 C218.176597,78.5439453 218.481932,78.6214185 218.700684,78.7763672 C218.919435,78.9313159 219.028809,79.1568996 219.028809,79.453125 C219.028809,79.7174492 218.952475,79.9567047 218.799805,80.1708984 C218.647135,80.3850922 218.331545,80.6630842 217.853027,81.0048828 C217.35628,81.369468 217.014487,81.71354 216.827637,82.0371094 C216.640787,82.3606787 216.547363,82.7412087 216.547363,83.1787109 L216.547363,83.6845703 Z M216.328613,86.0224609 C216.328613,86.3916034 216.43343,86.6775706 216.643066,86.8803711 C216.852703,87.0831716 217.148924,87.1845703 217.531738,87.1845703 C217.905438,87.1845703 218.197102,87.080893 218.406738,86.8735352 C218.616375,86.6661773 218.721191,86.3824888 218.721191,86.0224609 C218.721191,85.6487612 218.617514,85.3616546 218.410156,85.1611328 C218.202798,84.960611 217.909995,84.8603516 217.531738,84.8603516 C217.139809,84.8603516 216.84131,84.9583324 216.63623,85.1542969 C216.431151,85.3502614 216.328613,85.6396465 216.328613,86.0224609 Z" id="question"></path>
            </g>
        </g>
    </g>
</svg>