<?xml version="1.0" encoding="UTF-8"?>
<svg width="32px" height="32px" viewBox="0 0 32 32" version="1.1" xmlns="http://www.w3.org/2000/svg" xmlns:xlink="http://www.w3.org/1999/xlink">
    <!-- Generator: sketchtool 57.1 (101010) - https://sketch.com -->
    <title>16057055-B334-4044-8EAA-8882F93D5FD8</title>
    <desc>Created with sketchtool.</desc>
    <g id="Page-1" stroke="none" stroke-width="1" fill="none" fill-rule="evenodd">
        <g id="(D)-Article-page-2-+" transform="translate(-244.000000, -484.000000)">
            <g id="material" transform="translate(0.000000, 224.000000)">
                <g id="1-preview-announce" transform="translate(100.000000, 48.000000)">
                    <g id="share" transform="translate(0.000000, 212.000000)">
                        <g id="telegram" transform="translate(144.000000, 0.000000)">
                            <rect id="container" stroke="#D7DDEA" x="0.5" y="0.5" width="31" height="31" rx="4"></rect>
                            <path d="M20.1031828,22.0214026 C20.3151682,22.1715041 20.5883793,22.2090295 20.831965,22.1168619 C21.0755508,22.0240359 21.2546193,21.8160005 21.3086031,21.5638563 C21.8807005,18.8751962 23.268481,12.0699366 23.7892279,9.6242038 C23.8287283,9.43986863 23.7628943,9.24829172 23.6180595,9.12518216 C23.4732247,9.00207259 23.2724311,8.96652224 23.0933626,9.03301457 C20.3329434,10.0547581 11.8318002,13.2444149 8.35708215,14.5301528 C8.13653828,14.6117869 7.99302018,14.8237724 8.00026192,15.0561664 C8.008162,15.2892187 8.1648469,15.4913291 8.39065749,15.5591381 C9.94894805,16.0252427 11.9944101,16.6737075 11.9944101,16.6737075 C11.9944101,16.6737075 12.9503197,19.560528 13.448683,21.028626 C13.5112253,21.2129612 13.6554017,21.357796 13.845662,21.4078298 C14.0352638,21.4572053 14.2380325,21.4051964 14.3795756,21.2715534 C15.1801169,20.5157792 16.417796,19.3472259 16.417796,19.3472259 C16.417796,19.3472259 18.7693861,21.0714181 20.1031828,22.0214026 Z M12.8548604,16.3089872 L13.9602131,19.9548736 L14.2057739,17.6460756 C14.2057739,17.6460756 18.4764249,13.7941288 20.9109658,11.5985652 C20.9820665,11.5340479 20.9919416,11.4260801 20.932691,11.350371 C20.8740988,11.2746619 20.766131,11.2568868 20.6851552,11.3082373 C17.8635104,13.1101136 12.8548604,16.3089872 12.8548604,16.3089872 Z" fill="#ADB6C7"></path>
                        </g>
                    </g>
                </g>
            </g>
        </g>
    </g>
</svg>