<?xml version="1.0" encoding="UTF-8"?>
<svg width="17px" height="15px" viewBox="0 0 17 15" version="1.1" xmlns="http://www.w3.org/2000/svg" xmlns:xlink="http://www.w3.org/1999/xlink">
    <!-- Generator: sketchtool 53.1 (72631) - https://sketchapp.com -->
    <title>A8BF7155-ED00-4493-B1FD-724BF20A1D1A</title>
    <desc>Created with sketchtool.</desc>
    <g id="Page-1" stroke="none" stroke-width="1" fill-rule="evenodd">
        <g id="index" transform="translate(-1196.000000, -2972.000000)">
            <g id="footer" transform="translate(0.000000, 2845.000000)">
                <g id="3" transform="translate(1068.000000, 48.000000)">
                    <g id="social" transform="translate(0.000000, 62.000000)">
                        <g id="gray_telegram" transform="translate(112.000000, 0.000000)">
                            <path d="M29.0224037,31.0103611 C29.2504891,31.1718626 29.5444502,31.212238 29.806536,31.1130704 C30.0686218,31.0131944 30.2612903,30.789359 30.3193741,30.5180648 C30.9349216,27.6252044 32.4281022,20.3030942 32.9883991,17.6716113 C33.0308995,17.4732761 32.9600655,17.2671491 32.8042307,17.1346896 C32.6483959,17.00223 32.4323522,16.9639796 32.2396838,17.035522 C29.2696143,18.1348656 20.1228204,21.5667727 16.3842021,22.9501607 C16.1469082,23.0379948 15.9924901,23.2660803 16.0002818,23.5161243 C16.0087819,23.7668766 16.1773668,23.984337 16.4203274,24.057296 C18.0969681,24.5588007 20.2977804,25.2565156 20.2977804,25.2565156 C20.2977804,25.2565156 21.32629,28.3625863 21.8625033,29.9421844 C21.9297956,30.1405196 22.0849221,30.2963544 22.2896323,30.3501882 C22.4936342,30.4033137 22.7118029,30.3473549 22.864096,30.2035619 C23.7254374,29.3903876 25.0571166,28.1330842 25.0571166,28.1330842 C25.0571166,28.1330842 27.5873069,29.9882265 29.0224037,31.0103611 Z M21.2235807,24.8640952 L22.4128835,28.7868819 L22.6770943,26.3027337 C22.6770943,26.3027337 27.2720956,22.1582366 29.8915368,19.7959228 C29.9680375,19.7265055 29.9786626,19.6103377 29.914912,19.5288786 C29.8518698,19.4474195 29.735702,19.4282944 29.6485762,19.4835449 C26.6126311,21.4222714 21.2235807,24.8640952 21.2235807,24.8640952 Z" id="telegram"></path>
                        </g>
                    </g>
                </g>
            </g>
        </g>
    </g>
</svg>