<?xml version="1.0" encoding="UTF-8"?>
<svg width="32px" height="32px" viewBox="0 0 32 32" version="1.1" xmlns="http://www.w3.org/2000/svg" xmlns:xlink="http://www.w3.org/1999/xlink">
    <!-- Generator: sketchtool 57.1 (101010) - https://sketch.com -->
    <title>88B19A17-2682-4B51-99CA-9D19152C1874</title>
    <desc>Created with sketchtool.</desc>
    <g id="Page-1" stroke="none" stroke-width="1" fill="none" fill-rule="evenodd">
        <g id="(D)-Article-page-2-+" transform="translate(-292.000000, -484.000000)">
            <g id="material" transform="translate(0.000000, 224.000000)">
                <g id="1-preview-announce" transform="translate(100.000000, 48.000000)">
                    <g id="share" transform="translate(0.000000, 212.000000)">
                        <g id="twitter" transform="translate(192.000000, 0.000000)">
                            <rect id="container" stroke="#D7DDEA" x="0.5" y="0.5" width="31" height="31" rx="4"></rect>
                            <path d="M23.4902926,10.2334142 C22.8582614,10.5983008 22.1598798,10.8636729 21.4134365,11.0056631 C20.8188338,10.3867313 19.9690369,10 19.0282207,10 C17.2248478,10 15.7613086,11.427184 15.7613086,13.1872967 C15.7613086,13.4372966 15.78938,13.6796105 15.8455227,13.9130246 C13.129405,13.7799341 10.721647,12.5125396 9.10881913,10.581715 C8.82725478,11.0542068 8.66648239,11.6023458 8.66648239,12.1860834 C8.66648239,13.2912611 9.24322145,14.2669889 10.1206644,14.8385907 C9.58560711,14.8232185 9.08074776,14.6783966 8.63926166,14.4413416 L8.63926166,14.4801766 C8.63926166,16.025079 9.76594439,17.3139135 11.2622335,17.6055801 C10.988325,17.6804182 10.6991048,17.7180396 10.4009528,17.7180396 C10.1904175,17.7180396 9.98498615,17.6986221 9.78593461,17.6614053 C10.2019013,18.9271816 11.4081196,19.8491069 12.8384835,19.8737832 C11.7203072,20.7289609 10.3103589,21.2386695 8.77961851,21.2386695 C8.51591776,21.2386695 8.25519428,21.2241064 8,21.1949802 C9.4461009,22.0978925 11.1648344,22.625805 13.009889,22.625805 C19.0218408,22.625805 22.3083178,17.7698195 22.3083178,13.5574422 C22.3083178,13.4186882 22.3057658,13.2803388 22.3002366,13.1444165 C22.9386476,12.694983 23.4932699,12.133899 23.9296521,11.4947406 C23.3444065,11.7479768 22.7140767,11.9194978 22.0531235,11.9963586 C22.7281123,11.6023458 23.2461567,10.9777505 23.4902926,10.2334142" id="Twitter" fill="#ADB6C7"></path>
                        </g>
                    </g>
                </g>
            </g>
        </g>
    </g>
</svg>