<?xml version="1.0" encoding="UTF-8"?>
<svg width="19px" height="15px" viewBox="0 0 19 15" version="1.1" xmlns="http://www.w3.org/2000/svg" xmlns:xlink="http://www.w3.org/1999/xlink">
    <!-- Generator: sketchtool 53.1 (72631) - https://sketchapp.com -->
    <title>B2AF6A2D-EA29-402C-9B3E-B5BDDA394D48</title>
    <desc>Created with sketchtool.</desc>
    <g id="Page-1" stroke="none" stroke-width="1" fill-rule="evenodd">
        <g id="UI-KIT.-Hovers" transform="translate(-1360.000000, -1844.000000)">
            <g id="search" transform="translate(0.000000, 1557.000000)">
                <g id="default" transform="translate(0.000000, 126.000000)">
                    <g id="bot" transform="translate(0.000000, 144.000000)">
                        <g id="social" transform="translate(1204.000000, 0.000000)">
                            <g id="gray_twitter" transform="translate(141.000000, 0.000000)">
                                <path d="M32.9440435,17.2703883 C32.211895,17.693075 31.4028856,18.0004836 30.5382015,18.1649659 C29.8494104,17.4479917 28.8650007,17 27.7751538,17 C25.6861164,17 23.9907442,18.6532581 23.9907442,20.6921827 C23.9907442,20.9817841 24.0232623,21.2624818 24.0882983,21.5328701 C20.941932,21.3786972 18.1527714,19.9105403 16.2844624,17.673862 C15.9582967,18.2211992 15.772057,18.8561665 15.772057,19.5323716 C15.772057,20.8126156 16.4401548,21.9429044 17.4565898,22.6050511 C16.8367763,22.5872439 16.2519444,22.4194813 15.7405244,22.1448755 L15.7405244,22.1898621 C15.7405244,23.9794859 17.0456801,25.4724792 18.7789899,25.8103474 C18.4616927,25.8970404 18.1266584,25.9406212 17.7812775,25.9406212 C17.5373922,25.9406212 17.2994193,25.9181279 17.0688369,25.8750157 C17.550695,27.3412982 18.9479852,28.4092617 20.6049269,28.4378469 C19.3096252,29.4284897 17.6763329,30.018939 15.9031145,30.018939 C15.5976421,30.018939 15.2956185,30.002069 15,29.9683291 C16.6751715,31.0142679 18.6661622,31.6258047 20.803484,31.6258047 C27.7677634,31.6258047 31.5748371,26.0006033 31.5748371,21.1209614 C31.5748371,20.960228 31.5718809,20.7999632 31.5654758,20.64251 C32.3050148,20.1218837 32.9474924,19.4719208 33.453,18.7315161 C32.7750482,19.0248663 32.0448705,19.2235572 31.2792186,19.3125932 C32.0611295,18.8561665 32.6612351,18.1326318 32.9440435,17.2703883" id="Twitter"></path>
                            </g>
                        </g>
                    </g>
                </g>
            </g>
        </g>
    </g>
</svg>