<?xml version="1.0" encoding="UTF-8"?>
<svg width="32px" height="32px" viewBox="0 0 32 32" version="1.1" xmlns="http://www.w3.org/2000/svg" xmlns:xlink="http://www.w3.org/1999/xlink">
    <!-- Generator: sketchtool 57.1 (101010) - https://sketch.com -->
    <title>409BB7F4-C595-4E2A-8823-5ABD69DA6BE1</title>
    <desc>Created with sketchtool.</desc>
    <g id="Page-1" stroke="none" stroke-width="1" fill="none" fill-rule="evenodd">
        <g id="(D)-Article-page-2-+" transform="translate(-148.000000, -484.000000)">
            <g id="material" transform="translate(0.000000, 224.000000)">
                <g id="1-preview-announce" transform="translate(100.000000, 48.000000)">
                    <g id="share" transform="translate(0.000000, 212.000000)">
                        <g id="vk" transform="translate(48.000000, 0.000000)">
                            <rect id="container" stroke="#D7DDEA" x="0.5" y="0.5" width="31" height="31" rx="4"></rect>
                            <path d="M23.909841,19.8885013 C23.889256,19.8434847 23.870066,19.8061438 23.8522401,19.776227 C23.5572911,19.2371908 22.9936514,18.5755621 22.1616621,17.791152 L22.1440842,17.7731893 L22.1352798,17.764381 L22.1263823,17.7553525 L22.1174539,17.7553525 C21.7398547,17.3900914 21.5007395,17.1444973 21.4006044,17.0187589 C21.2173851,16.7792362 21.176339,16.5367879 21.2764741,16.2911308 C21.3472197,16.1055275 21.6129652,15.7135584 22.0730906,15.1146887 C22.3151199,14.797307 22.5068027,14.542936 22.6483559,14.3512927 C23.6692688,12.9740529 24.1118783,12.0939784 23.9760914,11.7107232 L23.9233577,11.6211617 C23.8879229,11.5672423 23.7964683,11.5179159 23.6491178,11.4729307 C23.5014263,11.4280398 23.3126577,11.4206157 23.0824709,11.4505324 L20.5333973,11.4684007 C20.4921032,11.4535524 20.4331382,11.4549366 20.3563163,11.4729307 C20.2795874,11.4909248 20.2412074,11.4999533 20.2412074,11.4999533 L20.1968442,11.5224459 L20.1616264,11.5494685 C20.1321129,11.5673367 20.0996542,11.5987635 20.0642194,11.6436858 C20.0289706,11.6884508 19.9994881,11.740986 19.975927,11.8008509 C19.6984008,12.5253646 19.3828668,13.198979 19.0287358,13.8216625 C18.8103917,14.1929636 18.6098735,14.5147494 18.4267472,14.7872089 C18.2438689,15.0595739 18.0904421,15.2602458 17.9666218,15.3888783 C17.8426155,15.5176367 17.7306998,15.6207881 17.6301926,15.6987101 C17.5298405,15.7766635 17.4532356,15.8096002 17.4001919,15.7975517 C17.3470242,15.7855033 17.2969567,15.7735491 17.2495553,15.761595 C17.1669981,15.7076757 17.1005927,15.6343466 17.0505252,15.5415449 C17.0002406,15.4487433 16.9663869,15.331939 16.948685,15.1912265 C16.9310761,15.0504196 16.9206596,14.9293055 16.9176834,14.8274754 C16.9149243,14.725771 16.9161953,14.5819127 16.9221786,14.3963093 C16.928317,14.2106116 16.9310761,14.0849676 16.9310761,14.0190941 C16.9310761,13.7915255 16.9354473,13.5445472 16.9442208,13.2780963 C16.9531492,13.0116454 16.9603726,12.8005294 16.9664179,12.6450001 C16.9724322,12.4893135 16.9752223,12.3245984 16.9752223,12.1509492 C16.9752223,11.9772999 16.9648058,11.8411174 16.9442208,11.7422757 C16.9238837,11.6435599 16.8926651,11.5477383 16.851526,11.4548422 C16.8101389,11.3620405 16.7495619,11.2902529 16.6700738,11.2392907 C16.5904308,11.1883913 16.4914117,11.147999 16.3735747,11.1179879 C16.0607998,11.0461688 15.6625226,11.0073179 15.178557,11.0012779 C14.0810701,10.9893238 13.3758773,11.0612373 13.0631334,11.2169239 C12.9392201,11.282703 12.8270874,11.372579 12.7268283,11.486269 C12.6205859,11.6180473 12.6057671,11.6899608 12.682465,11.701789 C13.036565,11.755614 13.2872438,11.8843724 13.4347803,12.0879384 L13.487948,12.1958086 C13.5293041,12.2736361 13.5705982,12.411423 13.6119233,12.6089805 C13.6531864,12.806538 13.6798167,13.025078 13.6915353,13.2644749 C13.7209868,13.7016495 13.7209868,14.0758762 13.6915353,14.3871865 C13.6619908,14.6986226 13.6340894,14.9410709 13.6074591,15.1147201 C13.5808287,15.2883694 13.5410227,15.4290819 13.487948,15.5368262 C13.4347803,15.644602 13.3994075,15.7104755 13.3816746,15.7343837 C13.3639727,15.7582919 13.3492159,15.7733604 13.3374973,15.7792745 C13.2607994,15.8090969 13.1810324,15.8242912 13.0984752,15.8242912 C13.015794,15.8242912 12.9155349,15.782326 12.7975429,15.6984584 C12.6795819,15.6145909 12.5571566,15.499391 12.4302672,15.3526699 C12.3033777,15.2059175 12.1602744,15.0008415 12.0008953,14.7374105 C11.8416402,14.4739796 11.6764018,14.1626379 11.5052731,13.8033853 L11.3636889,13.5428485 C11.2751794,13.3752392 11.1542733,13.1311865 11.0008465,12.8109107 C10.8473267,12.4905089 10.7116328,12.1805828 10.5936718,11.8811951 C10.5465184,11.7554567 10.4756798,11.6597294 10.38128,11.593856 L10.3369787,11.5668334 C10.3075272,11.5429252 10.2602498,11.5175384 10.1953945,11.4904843 C10.1304462,11.4634618 10.0626768,11.4440835 9.99180716,11.4321609 L7.56658482,11.4500291 C7.31875821,11.4500291 7.15060566,11.5069999 7.06206516,11.6207842 L7.02663035,11.6746092 C7.00892845,11.7045888 7,11.7524682 7,11.8183731 C7,11.8842466 7.0177019,11.9650941 7.0531367,12.0608214 C7.40717471,12.9051594 7.79218329,13.7194548 8.20816245,14.5038334 C8.6241416,15.2882121 8.98561999,15.92005 9.29238059,16.3987808 C9.59920319,16.8778576 9.9119471,17.3300063 10.2306123,17.7550065 C10.5492775,18.180164 10.7602122,18.4526234 10.8634165,18.5723219 C10.9667447,18.6922405 11.0479069,18.7818964 11.1069029,18.8417613 L11.3282231,19.0572814 C11.4698383,19.2010139 11.6777969,19.3731532 11.9521919,19.5736992 C12.2266488,19.774371 12.5304953,19.9719285 12.8638862,20.1666862 C13.1973392,20.3611293 13.5852619,20.5198044 14.0278714,20.6425228 C14.4704189,20.7653671 14.9011548,20.8146621 15.3201412,20.7908797 L16.3380469,20.7908797 C16.5444864,20.7727912 16.7008894,20.7069177 16.8071938,20.5932278 L16.8424116,20.5482111 C16.8660968,20.5124746 16.8882629,20.4569509 16.908724,20.3822377 C16.929433,20.3073987 16.9397255,20.2249467 16.9397255,20.1352594 C16.9336802,19.877837 16.9529942,19.6458328 16.9971405,19.4392783 C17.0412557,19.2327867 17.0915403,19.0771001 17.1477771,18.9722499 C17.203983,18.8674941 17.2674122,18.7790966 17.3380028,18.7074348 C17.4087484,18.6356158 17.4591569,18.5921091 17.4887325,18.577135 C17.5181219,18.5620665 17.5415901,18.5518426 17.559292,18.5457082 C17.7009072,18.4978289 17.8675717,18.5441983 18.0595335,18.6850366 C18.2513402,18.8257491 18.4312424,18.9994927 18.5995189,19.2059843 C18.7677025,19.4126647 18.9697708,19.644543 19.2057548,19.9019654 C19.4418938,20.1594822 19.6483643,20.3509053 19.8253213,20.4768325 L20.0022783,20.5846083 C20.1204563,20.6565217 20.2738831,20.7223952 20.4627447,20.7822601 C20.6512653,20.8421053 20.8164417,20.8570677 20.9582739,20.827151 L23.2240862,20.7912886 C23.4481965,20.7912886 23.6225804,20.7536332 23.7462767,20.67892 C23.870221,20.6040809 23.9438498,20.521629 23.967597,20.4319417 C23.9912822,20.34216 23.9925532,20.2402983 23.9720922,20.1264197 C23.9511041,20.0128241 23.9304261,19.9333922 23.909841,19.8885013 Z" fill="#ADB6C7"></path>
                        </g>
                    </g>
                </g>
            </g>
        </g>
    </g>
</svg>