<?xml version="1.0" encoding="UTF-8"?>
<svg width="18px" height="11px" viewBox="0 0 18 11" version="1.1" xmlns="http://www.w3.org/2000/svg" xmlns:xlink="http://www.w3.org/1999/xlink">
    <!-- Generator: sketchtool 53.1 (72631) - https://sketchapp.com -->
    <title>7C195673-0ABE-40FC-8B27-5E4A457A82CA</title>
    <desc>Created with sketchtool.</desc>
    <g id="Page-1" stroke="none" stroke-width="1" fill-rule="evenodd">
        <g id="UI-KIT.-Graphic" transform="translate(-112.000000, -502.000000)">
            <g id="social" transform="translate(112.000000, 426.000000)">
                <path d="M17.9045376,85.4113543 C17.8827416,85.3636896 17.8624228,85.3241522 17.8435483,85.2924757 C17.5312494,84.7217315 16.9344545,84.0211834 16.0535246,83.1906315 L16.0349127,83.1716122 L16.0255903,83.1622858 L16.0161695,83.1527262 L16.0067159,83.1527262 C15.6069049,82.7659792 15.3537242,82.5059383 15.2476988,82.3728035 C15.0537019,82.1191913 15.0102413,81.8624813 15.1162667,81.6023738 C15.1911738,81.4058526 15.4725514,80.9908265 15.959743,80.3567292 C16.2160093,80.020678 16.4189675,79.751344 16.5688474,79.5484275 C17.649814,78.0901736 18.1184594,77.15833 17.974685,76.7525304 L17.9188493,76.6577006 C17.8813301,76.6006095 17.7844958,76.5483815 17.6284776,76.5007501 C17.4720984,76.4532186 17.2722258,76.4453578 17.0284987,76.4770343 L14.3294795,76.4959537 C14.2857563,76.480232 14.2233228,76.4816976 14.141982,76.5007501 C14.0607396,76.5198027 14.020102,76.5293623 14.020102,76.5293623 L13.9731291,76.553178 L13.9358397,76.5817901 C13.9045901,76.6007095 13.8702221,76.6339848 13.8327029,76.6815496 C13.7953807,76.7289479 13.7641639,76.7845734 13.7392168,76.8479598 C13.4453656,77.6150919 13.1112707,78.3283307 12.7363085,78.9876426 C12.5051206,79.3807849 12.2928072,79.7214994 12.0989088,80.0099859 C11.9052729,80.2983724 11.742821,80.5108485 11.6117172,80.6470476 C11.4804164,80.7833801 11.3619174,80.8925992 11.2554981,80.9751048 C11.1492429,81.0576437 11.0681319,81.0925179 11.0119679,81.0797607 C10.9556727,81.0670034 10.90266,81.0543461 10.8524703,81.0416888 C10.7650568,80.9845978 10.6947452,80.9069552 10.6417325,80.8086946 C10.5884901,80.710434 10.5526449,80.5867589 10.5339018,80.4377692 C10.515257,80.2886796 10.5042278,80.1604412 10.5010766,80.052621 C10.4981551,79.944934 10.4995009,79.7926134 10.5058362,79.5960922 C10.5123356,79.3994711 10.515257,79.2664363 10.515257,79.1966879 C10.515257,78.9557329 10.5198854,78.6942265 10.5291749,78.412102 C10.5386286,78.1299775 10.5462769,77.9064429 10.5526778,77.7417648 C10.5590459,77.5769202 10.5620001,77.402516 10.5620001,77.2186521 C10.5620001,77.0347882 10.5509709,76.8905949 10.5291749,76.785939 C10.5076416,76.6814164 10.4745866,76.5799582 10.4310276,76.4815976 C10.3872059,76.383337 10.3230655,76.3073266 10.2389017,76.2533666 C10.1545738,76.1994731 10.0497301,76.1567048 9.92496149,76.1249283 C9.59378805,76.0488846 9.17208272,76.0077484 8.65964854,76.0013531 C7.49760368,75.9886958 6.75092888,76.0648395 6.41978827,76.2296841 C6.28858595,76.2993326 6.16985721,76.3944954 6.06370052,76.514873 C5.95120856,76.6544031 5.93551811,76.7305467 6.01672766,76.7430708 C6.39165708,76.8000619 6.65708164,76.9363943 6.81329676,77.1519348 L6.86959197,77.2661502 C6.91338079,77.3485559 6.95710395,77.4944479 7.00085994,77.7036264 C7.04455028,77.9128049 7.07274713,78.1442003 7.08515505,78.3976793 C7.11633899,78.86057 7.11633899,79.25681 7.08515505,79.5864327 C7.05387264,79.9161886 7.02432996,80.1728986 6.99613311,80.3567625 C6.96793627,80.5406264 6.92578871,80.6896161 6.86959197,80.8036983 C6.81329676,80.9178139 6.77584321,80.9875622 6.75706719,81.0128768 C6.738324,81.0381914 6.72269921,81.0541463 6.71029128,81.0604083 C6.62908174,81.091985 6.5446225,81.108073 6.457209,81.108073 C6.36966419,81.108073 6.2635075,81.0636393 6.13857479,80.9748383 C6.01367491,80.8860374 5.8840482,80.764061 5.74969466,80.6087093 C5.61534112,80.4533244 5.46382001,80.2361851 5.29506566,79.9572582 C5.12644261,79.6783314 4.9514843,79.3486754 4.7702892,78.9682903 L4.62037652,78.6924278 C4.52666058,78.5149592 4.3986423,78.2565505 4.23619039,77.9174348 C4.07364001,77.5781859 3.92996411,77.2500288 3.80506423,76.9330301 C3.7551371,76.7998954 3.68013152,76.6985371 3.58017879,76.6287887 L3.53327158,76.6001765 C3.50208764,76.5748619 3.45202922,76.5479818 3.3833589,76.5193364 C3.31459011,76.4907242 3.24283422,76.4702061 3.16779582,76.4575821 L0.599913335,76.4765014 C0.337508695,76.4765014 0.159464816,76.5368234 0.0657160482,76.6573009 L0.0281968458,76.7142921 C0.00945365728,76.7460352 0,76.796731 0,76.8665127 C0,76.9362611 0.0187431886,77.0218644 0.0562623909,77.1232227 C0.431126162,78.0172276 0.838782307,78.8794227 1.27923083,79.7099413 C1.71967934,80.5404599 2.10242116,81.2094647 2.42722651,81.7163561 C2.7520975,82.223614 3.08323811,82.7023596 3.42064833,83.1523598 C3.75805855,83.6025266 3.9814012,83.8910131 4.09067629,84.0177526 C4.20008267,84.1447253 4.28601904,84.239655 4.3484854,84.3030414 L4.58282449,84.5312392 C4.73277,84.6834265 4.95296144,84.8656916 5.24349727,85.0780344 C5.53409876,85.2905105 5.85581853,85.499689 6.20882072,85.705903 C6.56188856,85.9117839 6.97263027,86.0797929 7.44127564,86.20973 C7.90985535,86.3398004 8.36592866,86.3919951 8.80956123,86.3668138 L9.88734381,86.3668138 C10.1059268,86.3476613 10.2715299,86.2779129 10.3840875,86.1575353 L10.421377,86.1098706 C10.4464554,86.072032 10.4699254,86.0132422 10.4915901,85.934134 C10.5135173,85.8548927 10.5244153,85.7675907 10.5244153,85.6726276 C10.5180144,85.4000627 10.5384645,85.1544112 10.5852075,84.9357064 C10.6319178,84.7170683 10.6851603,84.5522236 10.7447052,84.4412058 C10.8042173,84.3302879 10.8713776,84.2366905 10.9461206,84.1608134 C11.0210277,84.0847696 11.0744015,84.0387037 11.1057167,84.0228488 C11.136835,84.006894 11.1616837,83.9960686 11.1804269,83.9895734 C11.3303724,83.9388776 11.5068406,83.9879746 11.7100943,84.1370976 C11.9131838,84.2860873 12.1036684,84.4700511 12.2818436,84.6886893 C12.4599203,84.9075273 12.6738749,85.1530456 12.9237404,85.4256105 C13.1737699,85.6982753 13.3923857,85.9009586 13.579752,86.0342932 L13.7671182,86.1484088 C13.8922478,86.2245524 14.0546998,86.2943008 14.2546709,86.3576872 C14.4542809,86.4210403 14.6291736,86.4368952 14.7793488,86.4052187 L17.1784442,86.3672468 C17.4157375,86.3672468 17.6003793,86.3273763 17.7313518,86.2482682 C17.862587,86.1690268 17.9405468,86.0817248 17.9656909,85.9867618 C17.9907694,85.8916988 17.9921152,85.7838453 17.9704506,85.6632679 C17.9482279,85.5429902 17.9263335,85.4588858 17.9045376,85.4113543 Z" id="vk"></path>
            </g>
        </g>
    </g>
</svg>