<?xml version="1.0" encoding="UTF-8"?>
<svg width="48px" height="48px" viewBox="0 0 48 48" version="1.1" xmlns="http://www.w3.org/2000/svg" xmlns:xlink="http://www.w3.org/1999/xlink">
    <!-- Generator: sketchtool 53.1 (72631) - https://sketchapp.com -->
    <title>3D3BFE00-A381-41C3-BB1B-0670F528BD4E</title>
    <desc>Created with sketchtool.</desc>
    <g id="Page-1" stroke="none" stroke-width="1"  fill-rule="evenodd">
        <g id="UI-KIT.-Hovers" transform="translate(-325.000000, -1077.000000)">
            <g id="social" transform="translate(112.000000, 997.000000)">
                <g id="default" transform="translate(213.000000, 80.000000)">
                    <g id="vk">
                        <rect id="Rectangle" x="0" y="0" width="48" height="48"></rect>
                        <path d="M32.9045376,28.4113543 C32.8827416,28.3636896 32.8624228,28.3241522 32.8435483,28.2924757 C32.5312494,27.7217315 31.9344545,27.0211834 31.0535246,26.1906315 L31.0349127,26.1716122 L31.0255903,26.1622858 L31.0161695,26.1527262 L31.0067159,26.1527262 C30.6069049,25.7659792 30.3537242,25.5059383 30.2476988,25.3728035 C30.0537019,25.1191913 30.0102413,24.8624813 30.1162667,24.6023738 C30.1911738,24.4058526 30.4725514,23.9908265 30.959743,23.3567292 C31.2160093,23.020678 31.4189675,22.751344 31.5688474,22.5484275 C32.649814,21.0901736 33.1184594,20.15833 32.974685,19.7525304 L32.9188493,19.6577006 C32.8813301,19.6006095 32.7844958,19.5483815 32.6284776,19.5007501 C32.4720984,19.4532186 32.2722258,19.4453578 32.0284987,19.4770343 L29.3294795,19.4959537 C29.2857563,19.480232 29.2233228,19.4816976 29.141982,19.5007501 C29.0607396,19.5198027 29.020102,19.5293623 29.020102,19.5293623 L28.9731291,19.553178 L28.9358397,19.5817901 C28.9045901,19.6007095 28.8702221,19.6339848 28.8327029,19.6815496 C28.7953807,19.7289479 28.7641639,19.7845734 28.7392168,19.8479598 C28.4453656,20.6150919 28.1112707,21.3283307 27.7363085,21.9876426 C27.5051206,22.3807849 27.2928072,22.7214994 27.0989088,23.0099859 C26.9052729,23.2983724 26.742821,23.5108485 26.6117172,23.6470476 C26.4804164,23.7833801 26.3619174,23.8925992 26.2554981,23.9751048 C26.1492429,24.0576437 26.0681319,24.0925179 26.0119679,24.0797607 C25.9556727,24.0670034 25.90266,24.0543461 25.8524703,24.0416888 C25.7650568,23.9845978 25.6947452,23.9069552 25.6417325,23.8086946 C25.5884901,23.710434 25.5526449,23.5867589 25.5339018,23.4377692 C25.515257,23.2886796 25.5042278,23.1604412 25.5010766,23.052621 C25.4981551,22.944934 25.4995009,22.7926134 25.5058362,22.5960922 C25.5123356,22.3994711 25.515257,22.2664363 25.515257,22.1966879 C25.515257,21.9557329 25.5198854,21.6942265 25.5291749,21.412102 C25.5386286,21.1299775 25.5462769,20.9064429 25.5526778,20.7417648 C25.5590459,20.5769202 25.5620001,20.402516 25.5620001,20.2186521 C25.5620001,20.0347882 25.5509709,19.8905949 25.5291749,19.785939 C25.5076416,19.6814164 25.4745866,19.5799582 25.4310276,19.4815976 C25.3872059,19.383337 25.3230655,19.3073266 25.2389017,19.2533666 C25.1545738,19.1994731 25.0497301,19.1567048 24.9249615,19.1249283 C24.5937881,19.0488846 24.1720827,19.0077484 23.6596485,19.0013531 C22.4976037,18.9886958 21.7509289,19.0648395 21.4197883,19.2296841 C21.288586,19.2993326 21.1698572,19.3944954 21.0637005,19.514873 C20.9512086,19.6544031 20.9355181,19.7305467 21.0167277,19.7430708 C21.3916571,19.8000619 21.6570816,19.9363943 21.8132968,20.1519348 L21.869592,20.2661502 C21.9133808,20.3485559 21.957104,20.4944479 22.0008599,20.7036264 C22.0445503,20.9128049 22.0727471,21.1442003 22.0851551,21.3976793 C22.116339,21.86057 22.116339,22.25681 22.0851551,22.5864327 C22.0538726,22.9161886 22.02433,23.1728986 21.9961331,23.3567625 C21.9679363,23.5406264 21.9257887,23.6896161 21.869592,23.8036983 C21.8132968,23.9178139 21.7758432,23.9875622 21.7570672,24.0128768 C21.738324,24.0381914 21.7226992,24.0541463 21.7102913,24.0604083 C21.6290817,24.091985 21.5446225,24.108073 21.457209,24.108073 C21.3696642,24.108073 21.2635075,24.0636393 21.1385748,23.9748383 C21.0136749,23.8860374 20.8840482,23.764061 20.7496947,23.6087093 C20.6153411,23.4533244 20.46382,23.2361851 20.2950657,22.9572582 C20.1264426,22.6783314 19.9514843,22.3486754 19.7702892,21.9682903 L19.6203765,21.6924278 C19.5266606,21.5149592 19.3986423,21.2565505 19.2361904,20.9174348 C19.07364,20.5781859 18.9299641,20.2500288 18.8050642,19.9330301 C18.7551371,19.7998954 18.6801315,19.6985371 18.5801788,19.6287887 L18.5332716,19.6001765 C18.5020876,19.5748619 18.4520292,19.5479818 18.3833589,19.5193364 C18.3145901,19.4907242 18.2428342,19.4702061 18.1677958,19.4575821 L15.5999133,19.4765014 C15.3375087,19.4765014 15.1594648,19.5368234 15.065716,19.6573009 L15.0281968,19.7142921 C15.0094537,19.7460352 15,19.796731 15,19.8665127 C15,19.9362611 15.0187432,20.0218644 15.0562624,20.1232227 C15.4311262,21.0172276 15.8387823,21.8794227 16.2792308,22.7099413 C16.7196793,23.5404599 17.1024212,24.2094647 17.4272265,24.7163561 C17.7520975,25.223614 18.0832381,25.7023596 18.4206483,26.1523598 C18.7580585,26.6025266 18.9814012,26.8910131 19.0906763,27.0177526 C19.2000827,27.1447253 19.286019,27.239655 19.3484854,27.3030414 L19.5828245,27.5312392 C19.73277,27.6834265 19.9529614,27.8656916 20.2434973,28.0780344 C20.5340988,28.2905105 20.8558185,28.499689 21.2088207,28.705903 C21.5618886,28.9117839 21.9726303,29.0797929 22.4412756,29.20973 C22.9098554,29.3398004 23.3659287,29.3919951 23.8095612,29.3668138 L24.8873438,29.3668138 C25.1059268,29.3476613 25.2715299,29.2779129 25.3840875,29.1575353 L25.421377,29.1098706 C25.4464554,29.072032 25.4699254,29.0132422 25.4915901,28.934134 C25.5135173,28.8548927 25.5244153,28.7675907 25.5244153,28.6726276 C25.5180144,28.4000627 25.5384645,28.1544112 25.5852075,27.9357064 C25.6319178,27.7170683 25.6851603,27.5522236 25.7447052,27.4412058 C25.8042173,27.3302879 25.8713776,27.2366905 25.9461206,27.1608134 C26.0210277,27.0847696 26.0744015,27.0387037 26.1057167,27.0228488 C26.136835,27.006894 26.1616837,26.9960686 26.1804269,26.9895734 C26.3303724,26.9388776 26.5068406,26.9879746 26.7100943,27.1370976 C26.9131838,27.2860873 27.1036684,27.4700511 27.2818436,27.6886893 C27.4599203,27.9075273 27.6738749,28.1530456 27.9237404,28.4256105 C28.1737699,28.6982753 28.3923857,28.9009586 28.579752,29.0342932 L28.7671182,29.1484088 C28.8922478,29.2245524 29.0546998,29.2943008 29.2546709,29.3576872 C29.4542809,29.4210403 29.6291736,29.4368952 29.7793488,29.4052187 L32.1784442,29.3672468 C32.4157375,29.3672468 32.6003793,29.3273763 32.7313518,29.2482682 C32.862587,29.1690268 32.9405468,29.0817248 32.9656909,28.9867618 C32.9907694,28.8916988 32.9921152,28.7838453 32.9704506,28.6632679 C32.9482279,28.5429902 32.9263335,28.4588858 32.9045376,28.4113543 Z"></path>
                    </g>
                </g>
            </g>
        </g>
    </g>
</svg>