<?xml version="1.0" encoding="UTF-8"?>
<svg width="16px" height="16px" viewBox="0 0 16 16" version="1.1" xmlns="http://www.w3.org/2000/svg" xmlns:xlink="http://www.w3.org/1999/xlink">
    <!-- Generator: sketchtool 57.1 (101010) - https://sketch.com -->
    <title>5EA5EC08-C3AB-4FFB-9CC8-C7DAECDFDAF0</title>
    <desc>Created with sketchtool.</desc>
    <g id="Page-1" stroke="none" stroke-width="1" fill="none" fill-rule="evenodd">
        <g id="(D)-Company-page-+" transform="translate(-128.000000, -706.000000)" fill="#ADB6C7">
            <g id="company-info" transform="translate(100.000000, 280.000000)">
                <g id="card">
                    <g id="contacts" transform="translate(24.000000, 40.000000)">
                        <g id="web" transform="translate(0.000000, 382.000000)">
                            <path d="M9.31248097,7.1425 C9.99998097,5.1825 11.027481,4 11.999981,4 C12.972481,4 13.999981,5.1825 14.687481,7.1425 L9.31248097,7.1425 Z M9.39998097,4.435 C7.9111462,4.94951439 6.60686201,5.89120758 5.64998097,7.1425 L8.10748097,7.1425 C8.3875611,6.17547024 8.8241767,5.26085766 9.39998097,4.435 L9.39998097,4.435 Z M7.42748097,12 C7.42305294,10.7516149 7.55127257,9.50629229 7.80998097,8.285 L4.91748097,8.285 C3.69417301,10.6106086 3.69417301,13.3893914 4.91748097,15.715 L7.80998097,15.715 C7.55127257,14.4937077 7.42305294,13.2483851 7.42748097,12 L7.42748097,12 Z M8.57248097,12 C8.564938,13.2501666 8.70337509,14.4969394 8.98498097,15.715 L15.014981,15.715 C15.2965869,14.4969394 15.4350239,13.2501666 15.427481,12 C15.4350239,10.7498334 15.2965869,9.50306058 15.014981,8.285 L8.98498097,8.285 C8.70337509,9.50306058 8.564938,10.7498334 8.57248097,12 L8.57248097,12 Z M18.349981,7.1425 C17.3930999,5.89120758 16.0888157,4.94951439 14.599981,4.435 C15.1757852,5.26085766 15.6124008,6.17547024 15.892481,7.1425 L18.349981,7.1425 Z M14.599981,19.565 C16.0888157,19.0504856 17.3930999,18.1087924 18.349981,16.8575 L15.892481,16.8575 C15.6124008,17.8245298 15.1757852,18.7391423 14.599981,19.565 L14.599981,19.565 Z M5.64998097,16.8575 C6.60686201,18.1087924 7.9111462,19.0504856 9.39998097,19.565 C8.8241767,18.7391423 8.3875611,17.8245298 8.10748097,16.8575 L5.64998097,16.8575 Z M16.189981,8.285 C16.4486894,9.50629229 16.576909,10.7516149 16.572481,12 C16.576909,13.2483851 16.4486894,14.4937077 16.189981,15.715 L19.082481,15.715 C20.3057889,13.3893914 20.3057889,10.6106086 19.082481,8.285 L16.189981,8.285 Z M9.31248097,16.8575 C9.99998097,18.8175 11.027481,20 11.999981,20 C12.972481,20 13.999981,18.8175 14.687481,16.8575 L9.31248097,16.8575 Z"></path>
                        </g>
                    </g>
                </g>
            </g>
        </g>
    </g>
</svg>