<?xml version="1.0" encoding="UTF-8"?><!DOCTYPE svg PUBLIC "-//W3C//DTD SVG 1.1//EN" "http://www.w3.org/Graphics/SVG/1.1/DTD/svg11.dtd"><svg xmlns="http://www.w3.org/2000/svg" xmlns:xlink="http://www.w3.org/1999/xlink"><symbol viewBox="0 0 16 16" id="calendar" xmlns="http://www.w3.org/2000/svg"><path d="M13.39 1.547h-1.668V.705a.7.7 0 00-.69-.705c-.388 0-.674.327-.674.705v.842H5.642V.705A.7.7 0 004.952 0a.69.69 0 00-.69.705v.842H2.61C1.162 1.547 0 2.75 0 4.21v9.125C0 14.814 1.179 16 2.61 16h10.78c1.448 0 2.61-1.203 2.61-2.664V4.211c0-1.461-1.179-2.664-2.61-2.664zM2.61 2.939h1.668v.842a.7.7 0 00.69.704.69.69 0 00.69-.704v-.842h4.717v.842a.7.7 0 00.69.704.69.69 0 00.69-.704v-.842h1.634c.691 0 1.247.567 1.247 1.272v2.062H1.364V4.21c0-.705.556-1.272 1.247-1.272z" fill-rule="evenodd"/></symbol><symbol viewBox="0 0 442.533 442.533" id="checkbox" xmlns="http://www.w3.org/2000/svg"><path d="M434.539 98.499l-38.828-38.828c-5.324-5.328-11.799-7.993-19.41-7.993-7.618 0-14.093 2.665-19.417 7.993L169.59 247.248l-83.939-84.225c-5.33-5.33-11.801-7.992-19.412-7.992-7.616 0-14.087 2.662-19.417 7.992L7.994 201.852C2.664 207.181 0 213.654 0 221.269c0 7.609 2.664 14.088 7.994 19.416l103.351 103.349 38.831 38.828c5.327 5.332 11.8 7.994 19.414 7.994 7.611 0 14.084-2.669 19.414-7.994l38.83-38.828L434.539 137.33c5.325-5.33 7.994-11.802 7.994-19.417.004-7.611-2.669-14.084-7.994-19.414z"/></symbol><symbol viewBox="0 0 12 8" id="chevron_down" xmlns="http://www.w3.org/2000/svg"><path d="M1.4.3L0 1.7l6 6 6-6L10.6.3 6 4.9z" fill-rule="evenodd"/></symbol><symbol viewBox="0 0 8 12" id="chevron_left" xmlns="http://www.w3.org/2000/svg"><path d="M7.4 1.4L6 0 0 6l6 6 1.4-1.4L2.8 6z" fill-rule="evenodd"/></symbol><symbol viewBox="0 0 8 12" id="chevron_right" xmlns="http://www.w3.org/2000/svg"><path d="M0 1.4L1.4 0l6 6-6 6L0 10.6 4.6 6z" fill-rule="evenodd"/></symbol><symbol viewBox="0 0 12 8" id="chevron_up" xmlns="http://www.w3.org/2000/svg"><path d="M1.4 7.7L0 6.3l6-6 6 6-1.4 1.4L6 3.1z" fill-rule="evenodd"/></symbol><symbol viewBox="0 0 12 12" id="close" xmlns="http://www.w3.org/2000/svg"><path d="M4.848 6L.238 1.39A.815.815 0 111.392.24L6 4.848l4.61-4.61a.815.815 0 011.151 1.153L7.152 6l4.61 4.61a.815.815 0 11-1.153 1.151L6 7.152l-4.61 4.61A.815.815 0 01.24 10.608L4.848 6z" fill-rule="evenodd"/></symbol><symbol viewBox="0 0 127 254" id="element" xmlns="http://www.w3.org/2000/svg"><path d="M127 185.764c-3.438.518-6.72.58-9.74.634-7.145.134-11.867.224-17.347 5.704L127 219.19V254L0 127 127 0v34.81L34.81 127l10.197 10.197c10.272-10.272 20.842-10.47 29.342-10.624 7.134-.133 11.856-.224 17.336-5.704 5.485-5.485 5.576-10.207 5.71-17.352.16-8.494.362-19.07 10.639-29.347 6.396-6.396 12.91-8.888 18.966-9.896v22.022c-1.25.764-2.499 1.757-3.791 3.05-5.49 5.49-5.576 10.207-5.715 17.357-.16 8.494-.368 19.064-10.64 29.336-10.27 10.271-20.836 10.474-29.325 10.629-7.144.133-11.867.224-17.346 5.704l24.56 24.56c10.272-10.271 20.837-10.474 29.336-10.628 5.172-.097 9.077-.171 12.921-2.293v21.753z" fill-rule="evenodd"/></symbol><symbol viewBox="0 0 16 10" id="eye" xmlns="http://www.w3.org/2000/svg"><path d="M8 7.143c-1.205 0-2.182-.96-2.182-2.143 0-1.183.977-2.143 2.182-2.143s2.182.96 2.182 2.143c0 1.183-.977 2.143-2.182 2.143zM8 0c4.364 0 8 4.643 8 5 0 .357-3.636 5-8 5S0 5.357 0 5c0-.357 3.636-5 8-5zm0 8.571c2.009 0 3.636-1.598 3.636-3.571S10.01 1.429 8 1.429C5.991 1.429 4.364 3.027 4.364 5S5.99 8.571 8 8.571z" fill-rule="evenodd"/></symbol><symbol viewBox="0 0 8 18" id="facebook" xmlns="http://www.w3.org/2000/svg"><path d="M5.268 0c-.542 0-1.062.066-1.67.306-1.235.503-1.864 1.682-1.864 3.518v1.792H0V8.61h1.734v8.63h3.534V8.61h2.407L8 5.616H5.268V4.26c0-.415.044-.721.152-.896.152-.262.455-.393.932-.393h1.605V0H5.268z" fill-rule="evenodd"/></symbol><symbol viewBox="0 0 16 16" id="icon_search" xmlns="http://www.w3.org/2000/svg"><path d="M15.606 13.786l-3.602-3.619c1.683-2.542 1.414-6.01-.825-8.248-2.56-2.559-6.718-2.559-9.26 0-2.559 2.559-2.559 6.716 0 9.258 2.24 2.24 5.707 2.508 8.25.825l3.62 3.62a1.3 1.3 0 001.834 0 1.285 1.285 0 00-.017-1.836zM3.737 9.342a3.962 3.962 0 010-5.605 3.963 3.963 0 015.607 0 3.962 3.962 0 010 5.605 3.963 3.963 0 01-5.607 0z" fill-rule="evenodd"/></symbol><symbol viewBox="0 0 20 20" id="important" xmlns="http://www.w3.org/2000/svg"><path d="M10 20c5.527 0 10-4.473 10-10S15.527 0 10 0 0 4.473 0 10s4.473 10 10 10zm-3.312-9.198l3.607-7.237c.106-.232.464-.147.464.106v4.515c0 .147.106.253.254.253l2.088-.063c.169 0 .296.168.232.337l-3.48 7.7c-.106.254-.465.17-.465-.105l.021-4.916a.257.257 0 00-.253-.253H6.9c-.169.021-.296-.169-.211-.337z" fill-rule="evenodd"/></symbol><symbol viewBox="0 0 18 18" id="instagram" xmlns="http://www.w3.org/2000/svg"><path d="M15.86 0H2.14C.958 0 0 .955 0 2.135v13.73C0 17.045.958 18 2.14 18h13.72c1.182 0 2.14-.956 2.14-2.135V2.135C18 .955 17.042 0 15.86 0zm-2.922 2.812c0-.31.252-.562.562-.562h1.687c.311 0 .563.252.563.562V4.5c0 .31-.252.562-.563.562H13.5a.562.562 0 01-.562-.562V2.812zM9.02 5.567a3.458 3.458 0 013.462 3.454 3.458 3.458 0 01-3.462 3.453A3.457 3.457 0 015.56 9.021a3.458 3.458 0 013.46-3.454zm7.292 10.183c0 .31-.252.563-.563.563H2.25a.563.563 0 01-.563-.563V7.312h2.25c-.293.422-.392 1.21-.392 1.709 0 3.012 2.457 5.463 5.476 5.463 3.02 0 5.476-2.451 5.476-5.463 0-.5-.071-1.275-.434-1.709h2.25v8.438z" fill-rule="evenodd"/></symbol><symbol viewBox="0 0 67 39" id="logo" xmlns="http://www.w3.org/2000/svg"><g fill-rule="evenodd"><path d="M49.79 16.538h16.458V.08H49.789v16.457zm8.148-14.22h6.073V8.39l-6.073-6.073zM52.026 4.78V2.317h2.75l9.235 9.235v2.75h-2.464l-9.521-9.52zm0 3.162l6.358 6.36h-6.358v-6.36zM0 16.538h16.457V.08H0v16.457zm2.236-4.986l9.234-9.235h2.75v2.464L4.7 14.302H2.235v-2.75zm0-9.235h6.072L2.236 8.39V2.317zM14.22 7.943v6.36H7.863l6.358-6.36zM27.249 10.682c.705 0 1.013.298 1.48.749.557.535 1.249 1.2 2.567 1.2 1.32 0 2.013-.665 2.57-1.2.467-.451.776-.749 1.481-.749.705 0 1.014.298 1.482.749.532.51 1.194 1.136 2.405 1.19v1.68H27.249v-3.619zm0-5.104c.705 0 1.013.297 1.48.747.557.536 1.249 1.202 2.567 1.202 1.32 0 2.013-.666 2.57-1.202.467-.45.776-.747 1.481-.747.705 0 1.014.297 1.482.747.532.512 1.194 1.137 2.405 1.191v3.158c-.59-.044-.889-.327-1.318-.74-.557-.535-1.249-1.2-2.569-1.2-1.32 0-2.013.665-2.568 1.2-.469.451-.778.748-1.483.748-.703 0-1.013-.297-1.48-.747-.555-.536-1.247-1.202-2.567-1.202V5.578zm0-3.26h11.985v3.25c-.59-.044-.889-.326-1.318-.738-.557-.536-1.249-1.203-2.569-1.203-1.32 0-2.013.667-2.568 1.203-.469.45-.778.748-1.483.748-.703 0-1.013-.298-1.48-.747-.555-.537-1.247-1.204-2.567-1.204v-1.31zm-2.237 14.22H41.47V.082H25.012V16.54zM8.538 33.894l-6.165-7.527H0v12.399h2.834v-7.529l6.181 7.529h2.357v-12.4H8.538zM36.199 32.105c-.602-.223-1.375-.448-2.32-.673-.91-.2-1.586-.405-2.028-.611-.443-.207-.665-.522-.665-.948 0-.425.192-.767.576-1.027.384-.26.976-.39 1.78-.39 1.146 0 2.292.325 3.436.975l.886-2.179c-.567-.354-1.228-.626-1.984-.815a9.52 9.52 0 00-2.32-.283c-1.134 0-2.093.17-2.879.513-.785.343-1.372.806-1.762 1.39a3.458 3.458 0 00-.585 1.959c0 .826.216 1.487.647 1.983.43.495.948.857 1.55 1.08.602.225 1.375.449 2.32.674.614.141 1.101.271 1.461.39.36.118.657.274.886.468.23.195.346.44.346.735 0 .403-.195.724-.585.966-.39.242-.991.363-1.807.363a7.104 7.104 0 01-2.196-.355c-.732-.235-1.364-.549-1.895-.938l-.975 2.161c.555.425 1.29.77 2.206 1.036.914.266 1.863.399 2.843.399 1.133 0 2.096-.171 2.887-.514.791-.342 1.384-.806 1.78-1.39a3.387 3.387 0 00.594-1.94c0-.827-.217-1.482-.647-1.966a3.839 3.839 0 00-1.55-1.063M62.669 32.45c-.449.372-1.104.558-1.966.558h-2.338v-4.303h2.338c.862 0 1.517.186 1.966.557.448.372.673.906.673 1.604 0 .684-.225 1.213-.673 1.585m1.054-5.536c-.809-.365-1.762-.549-2.86-.549h-5.367v12.4h2.869v-3.42h2.497c1.099 0 2.052-.18 2.86-.54.81-.36 1.432-.879 1.869-1.559.438-.679.656-1.472.656-2.381 0-.921-.218-1.72-.656-2.392-.437-.673-1.06-1.192-1.868-1.559"/></g></symbol><symbol viewBox="0 0 359 90" id="logo_element" xmlns="http://www.w3.org/2000/svg"><defs><path id="oa" d="M.79.669h89.295v88.33H.79z"/></defs><g fill-rule="evenodd"><path d="M270 90h89V1h-89v89zm44.074-76.902h32.831V45.93l-32.831-32.832zm-31.98 13.318V13.098h14.872l49.94 49.936v14.871h-13.322l-51.49-51.489zm0 17.104l34.386 34.385h-34.385V43.52zM0 90h89V1H0v89zm12.095-26.966L62.03 13.098h14.872v13.318l-51.49 51.49H12.096V63.033zm0-49.936H44.93L12.095 45.93V13.098zM76.902 43.52v34.385H42.52L76.902 43.52z"/><g transform="translate(135)"><mask id="ob" fill="#fff"><use xlink:href="#oa"/></mask><path d="M12.925 57.568c3.82 0 5.498 1.598 8.035 4.015 3.013 2.874 6.767 6.448 13.928 6.448 7.161 0 10.918-3.574 13.935-6.448 2.54-2.417 4.215-4.015 8.043-4.015 3.824 0 5.502 1.598 8.039 4.015 2.886 2.746 6.48 6.102 13.046 6.392v9.02H12.925V57.568zm0-27.4c3.82 0 5.498 1.596 8.035 4.014 3.013 2.874 6.767 6.447 13.928 6.447 7.161 0 10.918-3.573 13.935-6.447 2.54-2.418 4.215-4.015 8.043-4.015 3.824 0 5.502 1.597 8.039 4.015 2.886 2.745 6.48 6.101 13.046 6.392v16.947c-3.2-.24-4.821-1.748-7.15-3.967-3.017-2.875-6.774-6.448-13.935-6.448-7.165 0-10.922 3.573-13.94 6.448-2.536 2.417-4.214 4.014-8.038 4.014-3.82 0-5.498-1.597-8.032-4.01-3.016-2.879-6.77-6.452-13.93-6.452V30.167zm0-17.5h65.026V30.12c-3.2-.239-4.821-1.748-7.15-3.967-3.017-2.874-6.774-6.45-13.935-6.45-7.165 0-10.922 3.576-13.94 6.45-2.536 2.418-4.214 4.015-8.038 4.015-3.82 0-5.498-1.597-8.032-4.011-3.016-2.878-6.77-6.455-13.93-6.455V12.67zM.79 89h89.295V.665H.79v88.334z" mask="url(#ob)"/></g></g></symbol><symbol viewBox="0 0 359 90" id="logo_group" xmlns="http://www.w3.org/2000/svg"><defs><path id="pa" d="M.79.669h89.295v88.33H.79z"/></defs><g fill="none" fill-rule="evenodd" opacity=".066"><path d="M270 90h89V1h-89v89zm44.074-76.902h32.831V45.93l-32.831-32.832zm-31.98 13.318V13.098h14.872l49.94 49.936v14.871h-13.322l-51.49-51.489zm0 17.104l34.386 34.385h-34.385V43.52zM0 90h89V1H0v89zm12.095-26.966L62.03 13.098h14.872v13.318l-51.49 51.49H12.096V63.033zm0-49.936H44.93L12.095 45.93V13.098zM76.902 43.52v34.385H42.52L76.902 43.52z" fill="#3761AB"/><g transform="translate(135)"><mask id="pb" fill="#fff"><use xlink:href="#pa"/></mask><path d="M12.925 57.568c3.82 0 5.498 1.598 8.035 4.015 3.013 2.874 6.767 6.448 13.928 6.448 7.161 0 10.918-3.574 13.935-6.448 2.54-2.417 4.215-4.015 8.043-4.015 3.824 0 5.502 1.598 8.039 4.015 2.886 2.746 6.48 6.102 13.046 6.392v9.02H12.925V57.568zm0-27.4c3.82 0 5.498 1.596 8.035 4.014 3.013 2.874 6.767 6.447 13.928 6.447 7.161 0 10.918-3.573 13.935-6.447 2.54-2.418 4.215-4.015 8.043-4.015 3.824 0 5.502 1.597 8.039 4.015 2.886 2.745 6.48 6.101 13.046 6.392v16.947c-3.2-.24-4.821-1.748-7.15-3.967-3.017-2.875-6.774-6.448-13.935-6.448-7.165 0-10.922 3.573-13.94 6.448-2.536 2.417-4.214 4.014-8.038 4.014-3.82 0-5.498-1.597-8.032-4.01-3.016-2.879-6.77-6.452-13.93-6.452V30.167zm0-17.5h65.026V30.12c-3.2-.239-4.821-1.748-7.15-3.967-3.017-2.874-6.774-6.45-13.935-6.45-7.165 0-10.922 3.576-13.94 6.45-2.536 2.418-4.214 4.015-8.038 4.015-3.82 0-5.498-1.597-8.032-4.011-3.016-2.878-6.77-6.455-13.93-6.455V12.67zM.79 89h89.295V.665H.79v88.334z" fill="#3761AB" mask="url(#pb)"/></g></g></symbol><symbol viewBox="0 0 18 13" id="mail" xmlns="http://www.w3.org/2000/svg"><path d="M1.385 0c-.184 0-.36.04-.52.11L8.59 7.562c.27.26.568.26.836 0l7.71-7.454c-.16-.07-.336-.109-.52-.109H1.385zM.015 1.29A1.67 1.67 0 000 1.5v10c0 .205.04.4.108.578l5.33-5.547L.014 1.29zm17.97 0l-5.408 5.233 5.322 5.547c.066-.175.101-.368.101-.57v-10c0-.071-.006-.143-.014-.21zM11.539 7.53l-1.19 1.157a1.915 1.915 0 01-2.682 0l-1.19-1.149-5.25 5.453c.051.007.106.008.159.008h15.23c.05 0 .103-.002.152-.008l-5.229-5.46z" fill-rule="evenodd"/></symbol><symbol viewBox="0 0 15 16" id="notification" xmlns="http://www.w3.org/2000/svg"><path d="M.468 12.405a1.608 1.608 0 01.062-2.327l.52-.457c.332-.291.52-.727.52-1.185V5.901C1.57 3.18 3.646 0 7.18 0h.311c3.533 0 5.61 3.2 5.61 5.901v2.535c0 .458.188.873.52 1.185l.52.457c.685.623.706 1.683.062 2.327a1.587 1.587 0 01-1.143.478H1.611c-.436 0-.831-.166-1.143-.478zM7.325 16a2.182 2.182 0 01-2.182-2.182h4.364A2.182 2.182 0 017.325 16z" fill-rule="evenodd"/></symbol><symbol viewBox="0 0 64 64" id="play" xmlns="http://www.w3.org/2000/svg"><path d="M32 0C14.35 0 0 14.35 0 32s14.35 32 32 32 32-14.35 32-32S49.65 0 32 0zm10.307 33.617l-15.09 10.038c-1.28.876-3.032-.068-3.032-1.617V21.962c0-1.55 1.752-2.493 3.032-1.617l15.09 10.038c1.146.741 1.146 2.493 0 3.234z" fill-rule="evenodd"/></symbol><symbol viewBox="0 0 20 20" id="question" xmlns="http://www.w3.org/2000/svg"><path d="M10 0c5.472 0 10 4.528 10 10s-4.528 10-10 10H0V10C0 4.528 4.528 0 10 0zM8.547 11.685h1.812v-.41c0-.274.058-.495.174-.664.116-.168.393-.414.83-.738.639-.456 1.072-.866 1.3-1.23.227-.365.341-.798.341-1.3 0-.751-.276-1.353-.83-1.804-.554-.451-1.3-.677-2.239-.677-1.14 0-2.217.285-3.233.855l.745 1.497c.875-.447 1.654-.67 2.338-.67.392 0 .697.077.916.232.218.155.328.38.328.677 0 .264-.077.504-.23.718-.152.214-.467.492-.946.834-.497.364-.839.709-1.025 1.032-.187.324-.28.704-.28 1.142v.506zm-.218 2.337c0 .37.104.656.314.858.21.203.506.305.889.305.373 0 .665-.104.875-.311.21-.208.314-.492.314-.852 0-.373-.103-.66-.31-.86-.208-.201-.501-.302-.88-.302-.391 0-.69.098-.895.294-.205.196-.307.486-.307.868z" fill-rule="evenodd"/></symbol><symbol viewBox="0 0 17 15" id="telegram" xmlns="http://www.w3.org/2000/svg"><path d="M13.022 14.01a.842.842 0 00.785.103.822.822 0 00.512-.595c.616-2.893 2.11-10.215 2.67-12.846a.553.553 0 00-.185-.537.567.567 0 00-.564-.1C13.27 1.136 4.123 4.568.384 5.95A.586.586 0 000 6.516c.009.25.177.468.42.541 1.677.502 3.878 1.2 3.878 1.2s1.028 3.106 1.565 4.685a.62.62 0 00.427.408.614.614 0 00.574-.146l2.193-2.07s2.53 1.854 3.965 2.876zM5.224 7.864l1.189 3.923.264-2.484 7.215-6.507a.197.197 0 00.023-.267.201.201 0 00-.266-.045l-8.425 5.38z" fill-rule="evenodd"/></symbol><symbol viewBox="0 0 19 15" id="twitter" xmlns="http://www.w3.org/2000/svg"><path d="M17.944.27a7.673 7.673 0 01-2.406.895A3.822 3.822 0 0012.775 0c-2.089 0-3.784 1.653-3.784 3.692 0 .29.032.57.097.84A10.836 10.836 0 011.284.675a3.618 3.618 0 00-.512 1.858c0 1.28.668 2.41 1.685 3.073a3.862 3.862 0 01-1.716-.46v.045c0 1.79 1.305 3.282 3.038 3.62a3.873 3.873 0 01-1.71.065c.482 1.466 1.879 2.534 3.536 2.563a7.718 7.718 0 01-4.702 1.58c-.305 0-.607-.016-.903-.05a10.929 10.929 0 005.803 1.658c6.965 0 10.772-5.625 10.772-10.505 0-.16-.003-.321-.01-.478a7.553 7.553 0 001.888-1.911 7.71 7.71 0 01-2.174.58A3.718 3.718 0 0017.944.27" fill-rule="evenodd"/></symbol><symbol viewBox="0 0 18 11" id="vk" xmlns="http://www.w3.org/2000/svg"><path d="M17.905 9.411a1.258 1.258 0 00-.061-.119c-.313-.57-.91-1.27-1.79-2.101l-.02-.02-.008-.009-.01-.01h-.01c-.4-.386-.652-.646-.758-.78-.194-.253-.238-.51-.132-.77.075-.196.357-.611.844-1.245.256-.336.459-.606.609-.809 1.08-1.458 1.55-2.39 1.406-2.795l-.056-.095C17.88.6 17.784.548 17.629.5c-.157-.048-.357-.056-.6-.024l-2.7.019a.345.345 0 00-.187.005l-.122.028-.047.024-.037.029a.42.42 0 00-.103.1.655.655 0 00-.094.166c-.294.767-.628 1.48-1.003 2.14-.23.393-.443.733-.637 1.022a4.91 4.91 0 01-.487.637c-.132.136-.25.246-.357.328-.106.083-.187.118-.243.105a6.784 6.784 0 01-.16-.038.629.629 0 01-.21-.233 1.055 1.055 0 01-.108-.371 4.148 4.148 0 01-.033-.385 8.164 8.164 0 01.005-.457c.006-.197.01-.33.01-.4 0-.24.004-.502.013-.784.01-.282.017-.506.024-.67.006-.165.009-.34.009-.523a2.23 2.23 0 00-.033-.433 1.496 1.496 0 00-.098-.304.51.51 0 00-.192-.229 1.074 1.074 0 00-.314-.128C9.594.049 9.172.008 8.66 0 7.498-.01 6.75.065 6.42.23c-.131.07-.25.164-.356.285-.113.14-.128.216-.047.228.375.057.64.193.796.409l.057.114c.043.083.087.228.13.438.045.209.073.44.085.694.031.463.031.859 0 1.188-.031.33-.06.587-.089.77a1.56 1.56 0 01-.239.657.162.162 0 01-.047.047.693.693 0 01-.253.048c-.087 0-.193-.044-.318-.133a2.261 2.261 0 01-.39-.366 4.894 4.894 0 01-.454-.652 11.422 11.422 0 01-.525-.989l-.15-.276a23.862 23.862 0 01-.384-.775c-.162-.339-.306-.667-.43-.984A.626.626 0 003.58.629L3.533.6a.984.984 0 00-.365-.143L.6.478c-.262 0-.44.06-.534.18L.028.714A.312.312 0 000 .867c0 .07.019.155.056.256C.431 2.017.84 2.88 1.28 3.71c.44.83.823 1.5 1.148 2.006.325.508.656.986.994 1.436.337.45.56.739.67.866.11.127.195.222.257.285l.235.228c.15.152.37.335.66.547.291.213.613.422.966.628.353.206.764.374 1.232.504.469.13.925.182 1.369.157h1.077c.219-.02.385-.09.497-.21l.037-.047a.636.636 0 00.07-.176.98.98 0 00.033-.261 3.178 3.178 0 01.061-.737c.047-.219.1-.384.16-.495a1.215 1.215 0 01.36-.418.607.607 0 01.075-.033c.15-.051.327-.002.53.147.203.15.394.333.572.552.178.219.392.464.642.737.25.272.468.475.656.608l.187.114c.125.077.288.146.488.21.2.063.374.079.524.047l2.4-.038c.237 0 .421-.04.552-.119.132-.079.21-.166.235-.261a.747.747 0 00.004-.324 1.207 1.207 0 00-.065-.252z" fill-rule="evenodd"/></symbol></svg>