<?xml version="1.0" encoding="UTF-8"?><!DOCTYPE svg PUBLIC "-//W3C//DTD SVG 1.1//EN" "http://www.w3.org/Graphics/SVG/1.1/DTD/svg11.dtd"><svg xmlns="http://www.w3.org/2000/svg" xmlns:xlink="http://www.w3.org/1999/xlink"><symbol viewBox="0 0 16 16" id="calendar" xmlns="http://www.w3.org/2000/svg"><path d="M13.39 1.547h-1.668V.705a.7.7 0 00-.69-.705c-.388 0-.674.327-.674.705v.842H5.642V.705A.7.7 0 004.952 0a.69.69 0 00-.69.705v.842H2.61C1.162 1.547 0 2.75 0 4.21v9.125C0 14.814 1.179 16 2.61 16h10.78c1.448 0 2.61-1.203 2.61-2.664V4.211c0-1.461-1.179-2.664-2.61-2.664zM2.61 2.939h1.668v.842a.7.7 0 00.69.704.69.69 0 00.69-.704v-.842h4.717v.842a.7.7 0 00.69.704.69.69 0 00.69-.704v-.842h1.634c.691 0 1.247.567 1.247 1.272v2.062H1.364V4.21c0-.705.556-1.272 1.247-1.272z" fill-rule="evenodd"/></symbol><symbol viewBox="0 0 442.533 442.533" id="checkbox" xmlns="http://www.w3.org/2000/svg"><path d="M434.539 98.499l-38.828-38.828c-5.324-5.328-11.799-7.993-19.41-7.993-7.618 0-14.093 2.665-19.417 7.993L169.59 247.248l-83.939-84.225c-5.33-5.33-11.801-7.992-19.412-7.992-7.616 0-14.087 2.662-19.417 7.992L7.994 201.852C2.664 207.181 0 213.654 0 221.269c0 7.609 2.664 14.088 7.994 19.416l103.351 103.349 38.831 38.828c5.327 5.332 11.8 7.994 19.414 7.994 7.611 0 14.084-2.669 19.414-7.994l38.83-38.828L434.539 137.33c5.325-5.33 7.994-11.802 7.994-19.417.004-7.611-2.669-14.084-7.994-19.414z"/></symbol><symbol viewBox="0 0 12 8" id="chevron_down" xmlns="http://www.w3.org/2000/svg"><path d="M1.4.3L0 1.7l6 6 6-6L10.6.3 6 4.9z" fill-rule="evenodd"/></symbol><symbol viewBox="0 0 8 12" id="chevron_left" xmlns="http://www.w3.org/2000/svg"><path d="M7.4 1.4L6 0 0 6l6 6 1.4-1.4L2.8 6z" fill-rule="evenodd"/></symbol><symbol viewBox="0 0 8 12" id="chevron_right" xmlns="http://www.w3.org/2000/svg"><path d="M0 1.4L1.4 0l6 6-6 6L0 10.6 4.6 6z" fill-rule="evenodd"/></symbol><symbol viewBox="0 0 12 8" id="chevron_up" xmlns="http://www.w3.org/2000/svg"><path d="M1.4 7.7L0 6.3l6-6 6 6-1.4 1.4L6 3.1z" fill-rule="evenodd"/></symbol><symbol viewBox="0 0 12 12" id="close" xmlns="http://www.w3.org/2000/svg"><path d="M4.848 6L.238 1.39A.815.815 0 111.392.24L6 4.848l4.61-4.61a.815.815 0 011.151 1.153L7.152 6l4.61 4.61a.815.815 0 11-1.153 1.151L6 7.152l-4.61 4.61A.815.815 0 01.24 10.608L4.848 6z" fill-rule="evenodd"/></symbol><symbol viewBox="0 0 16 10" id="eye" xmlns="http://www.w3.org/2000/svg"><path d="M8 7.143c-1.205 0-2.182-.96-2.182-2.143 0-1.183.977-2.143 2.182-2.143s2.182.96 2.182 2.143c0 1.183-.977 2.143-2.182 2.143zM8 0c4.364 0 8 4.643 8 5 0 .357-3.636 5-8 5S0 5.357 0 5c0-.357 3.636-5 8-5zm0 8.571c2.009 0 3.636-1.598 3.636-3.571S10.01 1.429 8 1.429C5.991 1.429 4.364 3.027 4.364 5S5.99 8.571 8 8.571z" fill-rule="evenodd"/></symbol><symbol viewBox="0 0 8 18" id="facebook" xmlns="http://www.w3.org/2000/svg"><path d="M5.268 0c-.542 0-1.062.066-1.67.306-1.235.503-1.864 1.682-1.864 3.518v1.792H0V8.61h1.734v8.63h3.534V8.61h2.407L8 5.616H5.268V4.26c0-.415.044-.721.152-.896.152-.262.455-.393.932-.393h1.605V0H5.268z" fill-rule="evenodd"/></symbol><symbol viewBox="0 0 64 64" id="ico-file" xmlns="http://www.w3.org/2000/svg"><path d="M12.08 57.749a9 9 0 0012.728 0L55.92 26.636A13 13 0 1037.536 8.251L17.029 28.757l1.415 1.415L38.95 9.666a11 11 0 1115.556 15.556L23.394 56.334a7 7 0 01-9.9-9.9l26.87-26.87a3 3 0 014.242 4.243L28.343 40.071l1.414 1.414 16.264-16.263a5 5 0 00-7.071-7.071l-26.87 26.87a9 9 0 000 12.728z"/></symbol><symbol viewBox="0 0 16 16" id="icon_search" xmlns="http://www.w3.org/2000/svg"><path d="M15.606 13.786l-3.602-3.619c1.683-2.542 1.414-6.01-.825-8.248-2.56-2.559-6.718-2.559-9.26 0-2.559 2.559-2.559 6.716 0 9.258 2.24 2.24 5.707 2.508 8.25.825l3.62 3.62a1.3 1.3 0 001.834 0 1.285 1.285 0 00-.017-1.836zM3.737 9.342a3.962 3.962 0 010-5.605 3.963 3.963 0 015.607 0 3.962 3.962 0 010 5.605 3.963 3.963 0 01-5.607 0z" fill-rule="evenodd"/></symbol><symbol viewBox="0 0 20 20" id="important" xmlns="http://www.w3.org/2000/svg"><path d="M10 20c5.527 0 10-4.473 10-10S15.527 0 10 0 0 4.473 0 10s4.473 10 10 10zm-3.312-9.198l3.607-7.237c.106-.232.464-.147.464.106v4.515c0 .147.106.253.254.253l2.088-.063c.169 0 .296.168.232.337l-3.48 7.7c-.106.254-.465.17-.465-.105l.021-4.916a.257.257 0 00-.253-.253H6.9c-.169.021-.296-.169-.211-.337z" fill-rule="evenodd"/></symbol><symbol viewBox="0 0 18 18" id="instagram" xmlns="http://www.w3.org/2000/svg"><path d="M15.86 0H2.14C.958 0 0 .955 0 2.135v13.73C0 17.045.958 18 2.14 18h13.72c1.182 0 2.14-.956 2.14-2.135V2.135C18 .955 17.042 0 15.86 0zm-2.922 2.812c0-.31.252-.562.562-.562h1.687c.311 0 .563.252.563.562V4.5c0 .31-.252.562-.563.562H13.5a.562.562 0 01-.562-.562V2.812zM9.02 5.567a3.458 3.458 0 013.462 3.454 3.458 3.458 0 01-3.462 3.453A3.457 3.457 0 015.56 9.021a3.458 3.458 0 013.46-3.454zm7.292 10.183c0 .31-.252.563-.563.563H2.25a.563.563 0 01-.563-.563V7.312h2.25c-.293.422-.392 1.21-.392 1.709 0 3.012 2.457 5.463 5.476 5.463 3.02 0 5.476-2.451 5.476-5.463 0-.5-.071-1.275-.434-1.709h2.25v8.438z" fill-rule="evenodd"/></symbol><symbol viewBox="0 0 248 48" id="login-facebook" xmlns="http://www.w3.org/2000/svg"><g fill="none" fill-rule="evenodd"><rect stroke="#D7DDEA" x=".5" y=".5" width="247" height="47" rx="4"/><path d="M25.268 15c-.542 0-1.062.066-1.67.306-1.235.503-1.864 1.682-1.864 3.518v1.792H20v2.994h1.734v8.63h3.534v-8.63h2.407L28 20.616h-2.732V19.26c0-.415.044-.721.152-.896.152-.262.455-.393.932-.393h1.605V15h-2.689z" fill="#3A5998"/><text font-family="Montserrat-Medium, Montserrat" font-size="14" font-weight="400"><tspan x="56" y="27" fill="#5E6470">войти через</tspan> <tspan x="147.028" y="27" fill="#1A233A"> </tspan> <tspan x="150.794" y="27" font-family="Montserrat-Bold, Montserrat" font-weight="bold" fill="#1A233A">Facebook</tspan></text></g></symbol><symbol viewBox="0 0 248 48" id="login-twitter" xmlns="http://www.w3.org/2000/svg"><g fill="none" fill-rule="evenodd"><rect stroke="#D7DDEA" x=".5" y=".5" width="247" height="47" rx="4"/><path d="M30.538 18.165A3.822 3.822 0 0027.775 17c-2.089 0-3.784 1.653-3.784 3.692 0 .29.032.57.097.84a10.836 10.836 0 01-7.804-3.858 3.618 3.618 0 00-.512 1.858c0 1.28.668 2.41 1.685 3.073a3.862 3.862 0 01-1.716-.46v.045c0 1.79 1.305 3.282 3.038 3.62a3.873 3.873 0 01-1.71.065c.482 1.466 1.879 2.534 3.536 2.563a7.718 7.718 0 01-4.702 1.58c-.305 0-.607-.016-.903-.05a10.929 10.929 0 005.803 1.658c6.965 0 10.772-5.625 10.772-10.505 0-.16-.003-.321-.01-.478a7.553 7.553 0 001.888-1.911 7.71 7.71 0 01-2.174.58 3.718 3.718 0 001.665-2.042 7.673 7.673 0 01-2.406.895z" fill="#42ABE1"/><text font-family="Montserrat-Medium, Montserrat" font-size="14" font-weight="400"><tspan x="56" y="27" fill="#5E6470">войти через</tspan> <tspan x="147.028" y="27" fill="#1A233A"> </tspan> <tspan x="150.794" y="27" font-family="Montserrat-Bold, Montserrat" font-weight="bold" fill="#1A233A">Twitter</tspan></text></g></symbol><symbol viewBox="0 0 248 49" id="login-vk" xmlns="http://www.w3.org/2000/svg"><g fill="none" fill-rule="evenodd"><rect stroke="#D7DDEA" x=".5" y=".5" width="247" height="47.201" rx="4"/><text font-family="Montserrat-Medium, Montserrat" font-size="14" font-weight="400"><tspan x="56" y="27" fill="#5E6470">войти через</tspan> <tspan x="147.028" y="27" fill="#1A233A"> </tspan> <tspan x="150.794" y="27" font-family="Montserrat-Bold, Montserrat" font-weight="bold" fill="#1A233A">Вконтакте</tspan></text><path d="M33.042 28.53a1.263 1.263 0 00-.061-.12c-.314-.572-.913-1.276-1.798-2.11l-.018-.019-.01-.01-.01-.009h-.009c-.401-.388-.655-.65-.762-.783-.195-.255-.238-.512-.132-.774.075-.197.358-.614.847-1.25.258-.338.461-.608.612-.812 1.085-1.465 1.556-2.4 1.412-2.808l-.056-.095c-.038-.057-.135-.11-.292-.158-.157-.047-.358-.055-.602-.023l-2.71.019a.347.347 0 00-.19.004l-.121.03-.048.023-.037.029a.42.42 0 00-.104.1.658.658 0 00-.094.167c-.295.77-.63 1.487-1.007 2.149-.232.394-.445.737-.64 1.026a4.93 4.93 0 01-.489.64c-.132.137-.25.247-.358.33-.106.082-.188.117-.244.105a6.812 6.812 0 01-.16-.039.632.632 0 01-.212-.234 1.06 1.06 0 01-.108-.372 4.165 4.165 0 01-.033-.387 8.199 8.199 0 01.005-.458c.006-.198.009-.331.009-.401 0-.242.005-.505.014-.788.01-.284.017-.508.024-.673.006-.166.009-.341.009-.526 0-.184-.011-.33-.033-.434a1.502 1.502 0 00-.099-.306.513.513 0 00-.192-.23 1.079 1.079 0 00-.316-.128c-.332-.076-.756-.118-1.27-.124-1.167-.013-1.917.064-2.25.23a1.27 1.27 0 00-.357.286c-.113.14-.129.216-.047.229.376.057.643.194.8.41l.056.115c.044.083.088.23.132.44.044.21.072.442.085.696.03.465.03.863 0 1.194-.032.331-.062.589-.09.773a1.566 1.566 0 01-.24.66.163.163 0 01-.047.047.696.696 0 01-.254.048c-.088 0-.195-.045-.32-.134a2.27 2.27 0 01-.39-.368 4.915 4.915 0 01-.457-.654 11.47 11.47 0 01-.527-.993l-.15-.277a23.962 23.962 0 01-.386-.778c-.164-.34-.308-.67-.433-.989a.629.629 0 00-.226-.305l-.047-.029a.988.988 0 00-.367-.143l-2.579.019c-.263 0-.442.06-.536.182l-.038.057a.313.313 0 00-.028.153c0 .07.019.156.056.257.377.898.786 1.764 1.228 2.598.443.834.827 1.506 1.153 2.015.326.51.659.99.998 1.442.339.452.563.742.673.869.11.127.196.223.258.286l.236.23a5.6 5.6 0 00.663.549c.292.213.615.423.97.63.354.207.767.375 1.237.506.47.13.929.183 1.374.158h1.082c.22-.02.386-.09.5-.21l.037-.048a.638.638 0 00.07-.177.984.984 0 00.033-.262c-.006-.274.014-.52.061-.74.047-.22.1-.385.16-.497a1.22 1.22 0 01.363-.42.61.61 0 01.075-.033c.15-.051.328-.002.532.148.204.15.395.334.574.554.179.22.394.466.645.74.25.273.47.477.658.61l.188.115c.126.077.29.147.49.21.2.064.376.08.527.048l2.41-.038c.237 0 .423-.04.554-.12.132-.079.21-.167.236-.262a.75.75 0 00.004-.325 1.213 1.213 0 00-.066-.253z" fill="#4A76A8"/></g></symbol><symbol id="logo" viewBox="0 0 323.1 65.1" xml:space="preserve" xmlns="http://www.w3.org/2000/svg"><style>.aqst0{fill-rule:evenodd;clip-rule:evenodd;fill:#233271}</style><path class="aqst0" d="M0 11.8c5.9-.7 12.3-1.4 19-2.2 7.2-.8 14.9-1.7 23.2-2.7 0 8.6-.1 17.1-.1 25.6S42 49.5 42 58c-8.2-.9-15.9-1.7-23.1-2.4-6.7-.7-13-1.4-18.9-2V32.7 11.8zm11.9 30.5h5.3V31.6l8.3 10.7h4.7V22.8h-5.3v10.3l-8-10.3h-5v19.5zM94.5 11.8c5.9-.7 12.3-1.4 19-2.2 7.2-.8 14.9-1.7 23.2-2.7 0 8.6-.1 17.1-.1 25.6s-.1 17-.1 25.5c-8.2-.9-15.9-1.7-23.1-2.4-6.7-.7-13-1.4-18.9-2V32.7 11.8zm12.9 30.5h5.4v-5.6h2.7c4.8 0 8.4-2.4 8.4-7 0-4.4-3.2-6.9-8.1-6.9h-8.4v19.5zm5.4-9.8h2.6c1.9 0 3.1-1 3.1-2.6 0-1.7-1.2-2.6-3.1-2.6h-2.5v5.2h-.1zM47.3 11.8c5.9-.7 12.3-1.4 19-2.2 7.2-.8 14.9-1.7 23.2-2.7 0 8.6-.1 17.1-.1 25.6s-.1 17-.1 25.5c-8.2-.9-15.9-1.7-23.1-2.4-6.7-.7-13-1.4-18.9-2V32.7 11.8zM69 43.1c5 0 8.3-2.5 8.3-6.7 0-3.9-2.9-5.4-7.6-6.4-2.8-.6-3.5-1.1-3.5-2 0-.8.7-1.4 2-1.4 1.8 0 3.9.7 5.7 2l2.8-4c-2.2-1.8-4.9-2.7-8.4-2.7-4.9 0-7.9 2.7-7.9 6.5 0 4.3 3.4 5.5 7.7 6.5 2.8.6 3.4 1.1 3.4 2s-.8 1.5-2.3 1.5c-2.4 0-4.6-.8-6.6-2.5l-3.2 3.8c2.6 2.3 6 3.4 9.6 3.4zM152.4 0h2.7v65.1h-2.7zM169.3 21.9h1.9v-4.5h5.1v4.5h1.9V11.2h-1.9v4.4h-5.1v-4.4h-1.9v10.7zm0 16.2h1.8l5.4-7.8v7.8h1.8V27.4h-1.8l-5.4 7.8v-7.8h-1.8v10.7zm0 15.8h1.9v-9h5.1v9h1.9V43.2h-8.9v10.7zm11.8 0h8.3v-1.7h-6.5v-2.9h5.7v-1.7h-5.7v-2.8h6.4v-1.7h-8.2v10.8zm13.6 0h1.9V45h3.6v-1.7h-9V45h3.6v8.9h-.1zm7.6 0h8.3v-1.7h-6.5v-2.9h5.7v-1.7h-5.7v-2.8h6.4v-1.7h-8.3v10.8h.1zm10.8 0h1.9v-3.4h2.6c2.3 0 4.3-1.2 4.3-3.6 0-2.2-1.6-3.6-4.1-3.6h-4.7v10.6zm1.8-5.2v-3.8h2.7c1.4 0 2.3.7 2.3 1.9 0 1.1-.9 1.9-2.3 1.9h-2.7zm8.9 5.2h5.1c2.4 0 4-1.2 4-3.3 0-2.1-1.5-3.2-3.9-3.2h-3.3v-2.5h6.5v-1.7h-8.3v10.7h-.1zm1.8-1.7v-3.3h3.2c1.4 0 2.2.5 2.2 1.6 0 1.3-.9 1.7-2.5 1.7h-2.9zm11 1.8c1.4 0 2.5-.7 3.4-2.5l4.2-8.3h-2l-2.9 6.2-3.3-6.2h-2.1l4.4 8.1c-.5.9-1.2 1.2-1.7 1.2s-.9-.1-1.3-.3l-.7 1.4c.5.2 1.2.4 2 .4zm9.1-.1h1.9v-3.4h2.6c2.3 0 4.3-1.2 4.3-3.6 0-2.2-1.6-3.6-4.1-3.6h-4.7v10.6zm1.9-5.2v-3.8h2.7c1.4 0 2.3.7 2.3 1.9 0 1.1-.9 1.9-2.3 1.9h-2.7zm9 5.2h1.9v-9h5.8v-1.7h-7.7v10.7zm7.1 0l4.7-10.7h1.7l4.7 10.7h-2l-1.1-2.6h-5l-1.1 2.6h-1.9zm3.7-4.3h3.7l-1.8-4.3-1.9 4.3zM189 38.3c2 0 3.2-.7 4.3-1.9l-1.2-1.2c-.9.9-1.8 1.4-3.1 1.4-2 0-3.5-1.7-3.5-3.8 0-2.1 1.5-3.8 3.5-3.8 1.2 0 2.1.5 3 1.3l1.2-1.4c-1-1-2.2-1.7-4.2-1.7-3.2 0-5.5 2.5-5.5 5.5 0 3.2 2.4 5.6 5.5 5.6zm8.9-.2h1.9v-8.9h3.4v-1.7h-8.7v1.7h3.4v8.9zm7.2 0h1.9v-3.4h2.1c2.3 0 4.3-1.2 4.3-3.6 0-2.2-1.6-3.6-4.1-3.6h-4.2v10.6zM207 33v-3.9h2.2c1.4 0 2.3.7 2.3 1.9 0 1.1-.9 1.9-2.3 1.9H207v.1zm13 5.3c3.3 0 5.6-2.5 5.6-5.5s-2.3-5.5-5.6-5.5-5.6 2.5-5.6 5.5c.1 3 2.4 5.5 5.6 5.5zm.1-1.7c-2.1 0-3.6-1.7-3.6-3.8 0-2.1 1.5-3.8 3.6-3.8s3.6 1.7 3.6 3.8-1.5 3.8-3.6 3.8zm7.1 1.5h1.8l5.4-7.8v7.8h1.8V27.4h-1.8l-5.4 7.8v-7.8h-1.8v10.7zm14.4 0h1.9v-8.9h3.4v-1.7h-8.7v1.7h3.4v8.9zm7.2 0h8v-1.7h-6.1v-2.9h5.3v-1.7h-5.3v-2.7h6v-1.7h-7.9v10.7zm10.2.1c2.1 0 3.3-1.4 3.3-8.1v-1h3.7v9h1.9V27.4h-7.3v2.1c0 6.4-1 7.1-2.1 7.1-.2 0-.5 0-.6-.1l-.2 1.5c.3.1.9.2 1.3.2zm11.7-.1h4.3c2.5 0 4-1.3 4-3.5 0-2.1-1.6-3.3-4-3.3h-2.5v-3.8h-1.9v10.6h.1zm1.9-1.7v-3.5h2.4c1.4 0 2.2.6 2.2 1.7 0 1.2-.8 1.8-2.2 1.8h-2.4zm13.2 1.9c2 0 3.2-.7 4.3-1.9l-1.2-1.2c-.9.9-1.8 1.4-3.1 1.4-2 0-3.5-1.7-3.5-3.8 0-2.1 1.5-3.8 3.5-3.8 1.2 0 2.1.5 3 1.3l1.2-1.4c-1-1-2.2-1.7-4.2-1.7-3.2 0-5.5 2.5-5.5 5.5 0 3.2 2.4 5.6 5.5 5.6zm8.9-.2h1.9v-8.9h3.4v-1.7h-8.7v1.7h3.4v8.9zm7.2 0h4.9c2.4 0 3.9-1 3.9-2.9 0-1.5-.9-2.2-2.1-2.6.8-.4 1.5-1.1 1.5-2.4 0-.7-.2-1.3-.7-1.8-.6-.6-1.6-.9-2.8-.9h-4.8l.1 10.6zm1.9-6.2v-2.8h2.7c1.2 0 1.9.5 1.9 1.4 0 1-.8 1.5-2 1.5h-2.6v-.1zm0 4.5v-2.9h3c1.5 0 2.2.5 2.2 1.4 0 1-.8 1.5-2.1 1.5h-3.1zm13.7 1.9c3.3 0 5.6-2.5 5.6-5.5s-2.3-5.5-5.6-5.5-5.6 2.5-5.6 5.5 2.3 5.5 5.6 5.5zm0-1.7c-2.1 0-3.6-1.7-3.6-3.8 0-2.1 1.5-3.8 3.6-3.8s3.6 1.7 3.6 3.8-1.5 3.8-3.6 3.8zM180.9 21.9h8.3v-1.7h-6.4v-2.9h5.6v-1.7h-5.6v-2.8h6.3v-1.7h-8.2v10.8zm10 1.8h1.6l.2-1.8h7.5v1.8h1.6l.3-3.5h-1.3v-9h-7.4v1.5c0 3.6-.5 5.7-1.4 7.5h-1v3.5h-.1zm3-3.4c.7-1.5 1.2-3.6 1.2-6.1V13h3.8v7.3h-5zm10.2 1.6h5.2c2.4 0 3.9-1 3.9-2.9 0-1.5-.9-2.2-2.1-2.6.8-.4 1.5-1.1 1.5-2.4 0-.7-.2-1.3-.7-1.8-.6-.6-1.6-.9-2.8-.9h-5v10.6zm1.8-6.1V13h3c1.2 0 1.9.5 1.9 1.4 0 1-.8 1.5-2 1.5h-2.9v-.1zm0 4.5v-2.9h3.3c1.5 0 2.2.5 2.2 1.4 0 1-.8 1.5-2.1 1.5h-3.4zm9.5 1.6h1.8l5.4-7.8v7.8h1.8V11.2h-1.8l-5.4 7.8v-7.8h-1.8v10.7zm19.7 0v-2.8l1.7-1.9 3.2 4.7h2.3l-4.2-6.1 4-4.5h-2.2l-4.7 5.5v-5.5h-1.9v5.5l-4.7-5.5h-2.2l4 4.5-4.2 6.1h2.3l3.2-4.7 1.7 1.9v2.8h1.7zm8.9 0h1.8l5.4-7.8v7.8h1.8V11.2h-1.8l-5.4 7.8v-7.8H244v10.7zm11.7 0h1.8v-7.6l3.3 5h.1l3.4-5v7.6h1.9V11.2h-2l-3.2 5-3.2-5h-2l-.1 10.7zm18 .2c3.3 0 5.6-2.5 5.6-5.5s-2.3-5.5-5.6-5.5-5.6 2.5-5.6 5.5 2.3 5.5 5.6 5.5zm0-1.7c-2.1 0-3.6-1.7-3.6-3.8 0-2.1 1.5-3.8 3.6-3.8s3.6 1.7 3.6 3.8c0 2.1-1.5 3.8-3.6 3.8zm12.5 1.7c2 0 3.2-.7 4.3-1.9l-1.2-1.2c-.9.9-1.8 1.4-3.1 1.4-2 0-3.5-1.7-3.5-3.8 0-2.1 1.5-3.8 3.5-3.8 1.2 0 2.1.5 3 1.3l1.2-1.4c-1-1-2.2-1.7-4.2-1.7-3.2 0-5.5 2.5-5.5 5.5 0 3.2 2.3 5.6 5.5 5.6zm9-.2h1.9V13h3.5v-1.7h-9V13h3.5l.1 8.9zm7.5 0h4.6c2.5 0 4-1.3 4-3.5 0-2.1-1.6-3.3-4-3.3h-2.7v-3.8h-1.9v10.6zm1.8-1.6v-3.5h2.7c1.4 0 2.2.6 2.2 1.7 0 1.2-.8 1.8-2.2 1.8h-2.7z"/></symbol><symbol viewBox="0 0 359 90" id="logo_element" xmlns="http://www.w3.org/2000/svg"><defs><path id="ara" d="M.79.669h89.295v88.33H.79z"/></defs><g fill-rule="evenodd"><path d="M270 90h89V1h-89v89zm44.074-76.902h32.831V45.93l-32.831-32.832zm-31.98 13.318V13.098h14.872l49.94 49.936v14.871h-13.322l-51.49-51.489zm0 17.104l34.386 34.385h-34.385V43.52zM0 90h89V1H0v89zm12.095-26.966L62.03 13.098h14.872v13.318l-51.49 51.49H12.096V63.033zm0-49.936H44.93L12.095 45.93V13.098zM76.902 43.52v34.385H42.52L76.902 43.52z"/><g transform="translate(135)"><mask id="arb" fill="#fff"><use xlink:href="#ara"/></mask><path d="M12.925 57.568c3.82 0 5.498 1.598 8.035 4.015 3.013 2.874 6.767 6.448 13.928 6.448 7.161 0 10.918-3.574 13.935-6.448 2.54-2.417 4.215-4.015 8.043-4.015 3.824 0 5.502 1.598 8.039 4.015 2.886 2.746 6.48 6.102 13.046 6.392v9.02H12.925V57.568zm0-27.4c3.82 0 5.498 1.596 8.035 4.014 3.013 2.874 6.767 6.447 13.928 6.447 7.161 0 10.918-3.573 13.935-6.447 2.54-2.418 4.215-4.015 8.043-4.015 3.824 0 5.502 1.597 8.039 4.015 2.886 2.745 6.48 6.101 13.046 6.392v16.947c-3.2-.24-4.821-1.748-7.15-3.967-3.017-2.875-6.774-6.448-13.935-6.448-7.165 0-10.922 3.573-13.94 6.448-2.536 2.417-4.214 4.014-8.038 4.014-3.82 0-5.498-1.597-8.032-4.01-3.016-2.879-6.77-6.452-13.93-6.452V30.167zm0-17.5h65.026V30.12c-3.2-.239-4.821-1.748-7.15-3.967-3.017-2.874-6.774-6.45-13.935-6.45-7.165 0-10.922 3.576-13.94 6.45-2.536 2.418-4.214 4.015-8.038 4.015-3.82 0-5.498-1.597-8.032-4.011-3.016-2.878-6.77-6.455-13.93-6.455V12.67zM.79 89h89.295V.665H.79v88.334z" mask="url(#arb)"/></g></g></symbol><symbol id="logo_mini" viewBox="0 0 140 65.1" xml:space="preserve" xmlns="http://www.w3.org/2000/svg"><style>.asst0{fill-rule:evenodd;clip-rule:evenodd;fill:#233271}</style><path class="asst0" d="M0 11.8c5.9-.7 12.3-1.4 19-2.2 7.2-.8 14.9-1.7 23.2-2.7 0 8.6-.1 17.1-.1 25.6S42 49.5 42 58c-8.2-.9-15.9-1.7-23.1-2.4-6.7-.7-13-1.4-18.9-2V32.7 11.8zm11.9 30.5h5.3V31.6l8.3 10.7h4.7V22.8h-5.3v10.3l-8-10.3h-5v19.5zM94.5 11.8c5.9-.7 12.3-1.4 19-2.2 7.2-.8 14.9-1.7 23.2-2.7 0 8.6-.1 17.1-.1 25.6s-.1 17-.1 25.5c-8.2-.9-15.9-1.7-23.1-2.4-6.7-.7-13-1.4-18.9-2V32.7 11.8zm12.9 30.5h5.4v-5.6h2.7c4.8 0 8.4-2.4 8.4-7 0-4.4-3.2-6.9-8.1-6.9h-8.4v19.5zm5.4-9.8h2.6c1.9 0 3.1-1 3.1-2.6 0-1.7-1.2-2.6-3.1-2.6h-2.5v5.2h-.1zM47.3 11.8c5.9-.7 12.3-1.4 19-2.2 7.2-.8 14.9-1.7 23.2-2.7 0 8.6-.1 17.1-.1 25.6s-.1 17-.1 25.5c-8.2-.9-15.9-1.7-23.1-2.4-6.7-.7-13-1.4-18.9-2V32.7 11.8zM69 43.1c5 0 8.3-2.5 8.3-6.7 0-3.9-2.9-5.4-7.6-6.4-2.8-.6-3.5-1.1-3.5-2 0-.8.7-1.4 2-1.4 1.8 0 3.9.7 5.7 2l2.8-4c-2.2-1.8-4.9-2.7-8.4-2.7-4.9 0-7.9 2.7-7.9 6.5 0 4.3 3.4 5.5 7.7 6.5 2.8.6 3.4 1.1 3.4 2s-.8 1.5-2.3 1.5c-2.4 0-4.6-.8-6.6-2.5l-3.2 3.8c2.6 2.3 6 3.4 9.6 3.4z"/></symbol><symbol viewBox="0 0 18 13" id="mail" xmlns="http://www.w3.org/2000/svg"><path d="M1.385 0c-.184 0-.36.04-.52.11L8.59 7.562c.27.26.568.26.836 0l7.71-7.454c-.16-.07-.336-.109-.52-.109H1.385zM.015 1.29A1.67 1.67 0 000 1.5v10c0 .205.04.4.108.578l5.33-5.547L.014 1.29zm17.97 0l-5.408 5.233 5.322 5.547c.066-.175.101-.368.101-.57v-10c0-.071-.006-.143-.014-.21zM11.539 7.53l-1.19 1.157a1.915 1.915 0 01-2.682 0l-1.19-1.149-5.25 5.453c.051.007.106.008.159.008h15.23c.05 0 .103-.002.152-.008l-5.229-5.46z" fill-rule="evenodd"/></symbol><symbol viewBox="0 0 13 18" id="map_pin" xmlns="http://www.w3.org/2000/svg"><path d="M6.5 18C3.7 15.254 0 11.695 0 6.61 0 2.95 2.9 0 6.5 0S13 2.95 13 6.61c0 5.085-3.7 8.644-6.5 11.39zm0-14.644c1.9 0 3.4 1.525 3.4 3.458 0 1.932-1.5 3.457-3.4 3.457S3.1 8.746 3.1 6.814c0-1.933 1.5-3.458 3.4-3.458z" fill-rule="evenodd"/></symbol><symbol viewBox="0 0 15 16" id="notification" xmlns="http://www.w3.org/2000/svg"><path d="M.468 12.405a1.608 1.608 0 01.062-2.327l.52-.457c.332-.291.52-.727.52-1.185V5.901C1.57 3.18 3.646 0 7.18 0h.311c3.533 0 5.61 3.2 5.61 5.901v2.535c0 .458.188.873.52 1.185l.52.457c.685.623.706 1.683.062 2.327a1.587 1.587 0 01-1.143.478H1.611c-.436 0-.831-.166-1.143-.478zM7.325 16a2.182 2.182 0 01-2.182-2.182h4.364A2.182 2.182 0 017.325 16z" fill-rule="evenodd"/></symbol><symbol viewBox="0 0 14 16" id="phone" xmlns="http://www.w3.org/2000/svg"><path d="M3.883 5.725c1.013-.714 2.505-.014 1.56-3.447C4.495-1.155 2.286.311 2.286.311-5.456 3.793 8.55 20.96 13.401 14.601c0 0 1.932-1.823-1.146-3.564-3.078-1.739-2.755-.108-3.683.718-1.32 1.177-6.132-5.01-4.69-6.03z" fill-rule="evenodd"/></symbol><symbol viewBox="0 0 64 64" id="play" xmlns="http://www.w3.org/2000/svg"><path d="M32 0C14.35 0 0 14.35 0 32s14.35 32 32 32 32-14.35 32-32S49.65 0 32 0zm10.307 33.617l-15.09 10.038c-1.28.876-3.032-.068-3.032-1.617V21.962c0-1.55 1.752-2.493 3.032-1.617l15.09 10.038c1.146.741 1.146 2.493 0 3.234z" fill-rule="evenodd"/></symbol><symbol viewBox="0 0 20 20" id="question" xmlns="http://www.w3.org/2000/svg"><path d="M10 0c5.472 0 10 4.528 10 10s-4.528 10-10 10H0V10C0 4.528 4.528 0 10 0zM8.547 11.685h1.812v-.41c0-.274.058-.495.174-.664.116-.168.393-.414.83-.738.639-.456 1.072-.866 1.3-1.23.227-.365.341-.798.341-1.3 0-.751-.276-1.353-.83-1.804-.554-.451-1.3-.677-2.239-.677-1.14 0-2.217.285-3.233.855l.745 1.497c.875-.447 1.654-.67 2.338-.67.392 0 .697.077.916.232.218.155.328.38.328.677 0 .264-.077.504-.23.718-.152.214-.467.492-.946.834-.497.364-.839.709-1.025 1.032-.187.324-.28.704-.28 1.142v.506zm-.218 2.337c0 .37.104.656.314.858.21.203.506.305.889.305.373 0 .665-.104.875-.311.21-.208.314-.492.314-.852 0-.373-.103-.66-.31-.86-.208-.201-.501-.302-.88-.302-.391 0-.69.098-.895.294-.205.196-.307.486-.307.868z" fill-rule="evenodd"/></symbol><symbol viewBox="0 0 508.044 508.044" id="quotes" xmlns="http://www.w3.org/2000/svg"><path d="M507.93 155.673c0-.055.006-.11.006-.165 0-66.793-54.145-120.938-120.938-120.938S266.061 88.714 266.061 155.508c0 66.794 54.15 120.938 120.938 120.938 13.727 0 26.867-2.393 39.162-6.609-27.209 156.09-148.93 256.752-36.096 173.905C515.182 351.874 508.07 159.198 507.93 155.673zM120.938 276.445c13.727 0 26.867-2.393 39.168-6.609-27.216 156.09-148.937 256.752-36.102 173.905 125.117-91.867 118.006-284.543 117.865-288.068 0-.055.006-.11.006-.165 0-66.793-54.144-120.938-120.937-120.938C54.144 34.57 0 88.714 0 155.508c0 66.794 54.15 120.937 120.938 120.937z"/></symbol><symbol viewBox="0 0 17 15" id="telegram" xmlns="http://www.w3.org/2000/svg"><path d="M13.022 14.01a.842.842 0 00.785.103.822.822 0 00.512-.595c.616-2.893 2.11-10.215 2.67-12.846a.553.553 0 00-.185-.537.567.567 0 00-.564-.1C13.27 1.136 4.123 4.568.384 5.95A.586.586 0 000 6.516c.009.25.177.468.42.541 1.677.502 3.878 1.2 3.878 1.2s1.028 3.106 1.565 4.685a.62.62 0 00.427.408.614.614 0 00.574-.146l2.193-2.07s2.53 1.854 3.965 2.876zM5.224 7.864l1.189 3.923.264-2.484 7.215-6.507a.197.197 0 00.023-.267.201.201 0 00-.266-.045l-8.425 5.38z" fill-rule="evenodd"/></symbol><symbol viewBox="0 0 19 15" id="twitter" xmlns="http://www.w3.org/2000/svg"><path d="M17.944.27a7.673 7.673 0 01-2.406.895A3.822 3.822 0 0012.775 0c-2.089 0-3.784 1.653-3.784 3.692 0 .29.032.57.097.84A10.836 10.836 0 011.284.675a3.618 3.618 0 00-.512 1.858c0 1.28.668 2.41 1.685 3.073a3.862 3.862 0 01-1.716-.46v.045c0 1.79 1.305 3.282 3.038 3.62a3.873 3.873 0 01-1.71.065c.482 1.466 1.879 2.534 3.536 2.563a7.718 7.718 0 01-4.702 1.58c-.305 0-.607-.016-.903-.05a10.929 10.929 0 005.803 1.658c6.965 0 10.772-5.625 10.772-10.505 0-.16-.003-.321-.01-.478a7.553 7.553 0 001.888-1.911 7.71 7.71 0 01-2.174.58A3.718 3.718 0 0017.944.27" fill-rule="evenodd"/></symbol><symbol viewBox="0 0 18 11" id="vk" xmlns="http://www.w3.org/2000/svg"><path d="M17.905 9.411a1.258 1.258 0 00-.061-.119c-.313-.57-.91-1.27-1.79-2.101l-.02-.02-.008-.009-.01-.01h-.01c-.4-.386-.652-.646-.758-.78-.194-.253-.238-.51-.132-.77.075-.196.357-.611.844-1.245.256-.336.459-.606.609-.809 1.08-1.458 1.55-2.39 1.406-2.795l-.056-.095C17.88.6 17.784.548 17.629.5c-.157-.048-.357-.056-.6-.024l-2.7.019a.345.345 0 00-.187.005l-.122.028-.047.024-.037.029a.42.42 0 00-.103.1.655.655 0 00-.094.166c-.294.767-.628 1.48-1.003 2.14-.23.393-.443.733-.637 1.022a4.91 4.91 0 01-.487.637c-.132.136-.25.246-.357.328-.106.083-.187.118-.243.105a6.784 6.784 0 01-.16-.038.629.629 0 01-.21-.233 1.055 1.055 0 01-.108-.371 4.148 4.148 0 01-.033-.385 8.164 8.164 0 01.005-.457c.006-.197.01-.33.01-.4 0-.24.004-.502.013-.784.01-.282.017-.506.024-.67.006-.165.009-.34.009-.523a2.23 2.23 0 00-.033-.433 1.496 1.496 0 00-.098-.304.51.51 0 00-.192-.229 1.074 1.074 0 00-.314-.128C9.594.049 9.172.008 8.66 0 7.498-.01 6.75.065 6.42.23c-.131.07-.25.164-.356.285-.113.14-.128.216-.047.228.375.057.64.193.796.409l.057.114c.043.083.087.228.13.438.045.209.073.44.085.694.031.463.031.859 0 1.188-.031.33-.06.587-.089.77a1.56 1.56 0 01-.239.657.162.162 0 01-.047.047.693.693 0 01-.253.048c-.087 0-.193-.044-.318-.133a2.261 2.261 0 01-.39-.366 4.894 4.894 0 01-.454-.652 11.422 11.422 0 01-.525-.989l-.15-.276a23.862 23.862 0 01-.384-.775c-.162-.339-.306-.667-.43-.984A.626.626 0 003.58.629L3.533.6a.984.984 0 00-.365-.143L.6.478c-.262 0-.44.06-.534.18L.028.714A.312.312 0 000 .867c0 .07.019.155.056.256C.431 2.017.84 2.88 1.28 3.71c.44.83.823 1.5 1.148 2.006.325.508.656.986.994 1.436.337.45.56.739.67.866.11.127.195.222.257.285l.235.228c.15.152.37.335.66.547.291.213.613.422.966.628.353.206.764.374 1.232.504.469.13.925.182 1.369.157h1.077c.219-.02.385-.09.497-.21l.037-.047a.636.636 0 00.07-.176.98.98 0 00.033-.261 3.178 3.178 0 01.061-.737c.047-.219.1-.384.16-.495a1.215 1.215 0 01.36-.418.607.607 0 01.075-.033c.15-.051.327-.002.53.147.203.15.394.333.572.552.178.219.392.464.642.737.25.272.468.475.656.608l.187.114c.125.077.288.146.488.21.2.063.374.079.524.047l2.4-.038c.237 0 .421-.04.552-.119.132-.079.21-.166.235-.261a.747.747 0 00.004-.324 1.207 1.207 0 00-.065-.252z" fill-rule="evenodd"/></symbol><symbol viewBox="0 0 16 16" id="web" xmlns="http://www.w3.org/2000/svg"><path d="M5.312 3.143C6 1.183 7.027 0 8 0c.972 0 2 1.183 2.687 3.143H5.312zM5.4.434a8.018 8.018 0 00-3.75 2.708h2.457A9.218 9.218 0 015.4.434zM3.427 8a17.625 17.625 0 01.383-3.715H.917a7.98 7.98 0 000 7.43H3.81A17.625 17.625 0 013.427 8zm1.145 0c-.007 1.25.131 2.497.413 3.715h6.03c.282-1.218.42-2.465.412-3.715.008-1.25-.13-2.497-.412-3.715h-6.03A16.063 16.063 0 004.572 8zm9.778-4.857A8.018 8.018 0 0010.6.434a9.218 9.218 0 011.292 2.708h2.458zM10.6 15.565a8.018 8.018 0 003.75-2.707h-2.458a9.218 9.218 0 01-1.292 2.707zm-8.95-2.707a8.018 8.018 0 003.75 2.707 9.218 9.218 0 01-1.293-2.707H1.65zm10.54-8.573c.259 1.221.387 2.467.382 3.715a17.625 17.625 0 01-.382 3.715h2.892a7.98 7.98 0 000-7.43H12.19zm-6.878 8.573C6 14.818 7.027 16 8 16c.972 0 2-1.183 2.687-3.142H5.312z" fill="#ADB6C7" fill-rule="evenodd"/></symbol></svg>