<?xml version="1.0" encoding="UTF-8"?>
<svg width="67px" height="39px" viewBox="0 0 67 39" version="1.1" xmlns="http://www.w3.org/2000/svg" xmlns:xlink="http://www.w3.org/1999/xlink">
    <!-- Generator: sketchtool 53.1 (72631) - https://sketchapp.com -->
    <title>952B2581-01EF-4735-B545-F1DEEAD9BD51</title>
    <desc>Created with sketchtool.</desc>
    <g id="Page-1" stroke="none" stroke-width="1" fill="none" fill-rule="evenodd">
        <g id="UI-KIT.-Graphic" transform="translate(-114.000000, -652.000000)" fill="#235FDB">
            <g id="graphic" transform="translate(112.000000, 580.000000)">
                <g id="logo" transform="translate(2.000000, 72.000000)">
                    <path d="M49.7891892,16.5379459 L66.2475676,16.5379459 L66.2475676,0.0806486486 L49.7891892,0.0806486486 L49.7891892,16.5379459 Z M57.9383784,2.31740541 L64.0108108,2.31740541 L64.0108108,8.38983784 L57.9383784,2.31740541 Z M52.0259459,4.78118919 L52.0259459,2.31740541 L54.7762162,2.31740541 L64.0108108,11.552 L64.0108108,14.3022703 L61.547027,14.3022703 L52.0259459,4.78118919 Z M52.0259459,7.94335135 L58.3837838,14.3022703 L52.0259459,14.3022703 L52.0259459,7.94335135 Z" id="Fill-1"></path>
                    <path d="M0,16.5379459 L16.4572973,16.5379459 L16.4572973,0.0806486486 L0,0.0806486486 L0,16.5379459 Z M2.23567568,11.552 L11.4702703,2.31740541 L14.2205405,2.31740541 L14.2205405,4.78118919 L4.69945946,14.3022703 L2.23567568,14.3022703 L2.23567568,11.552 Z M2.23567568,2.31740541 L8.30810811,2.31740541 L2.23567568,8.38983784 L2.23567568,2.31740541 Z M14.2205405,7.94335135 L14.2205405,14.3022703 L7.8627027,14.3022703 L14.2205405,7.94335135 Z" id="Fill-2"></path>
                    <path d="M27.2488649,10.6824865 C27.9537297,10.6824865 28.2618378,10.9797838 28.7299459,11.4305946 C29.2856216,11.9657297 29.9775135,12.6316757 31.2964324,12.6316757 C32.6164324,12.6316757 33.3094054,11.9657297 33.8650811,11.4305946 C34.3331892,10.9797838 34.6423784,10.6824865 35.3472432,10.6824865 C36.0521081,10.6824865 36.3612973,10.9797838 36.8294054,11.4305946 C37.3612973,11.9419459 38.0229189,12.5668108 39.2337297,12.6219459 L39.2337297,14.3019459 L27.2488649,14.3019459 L27.2488649,10.6824865 Z M27.2488649,5.57762162 C27.9537297,5.57762162 28.2618378,5.87491892 28.7299459,6.32464865 C29.2856216,6.86086486 29.9775135,7.52681081 31.2964324,7.52681081 C32.6164324,7.52681081 33.3094054,6.86086486 33.8650811,6.32464865 C34.3331892,5.87491892 34.6423784,5.57762162 35.3472432,5.57762162 C36.0521081,5.57762162 36.3612973,5.87491892 36.8294054,6.32464865 C37.3612973,6.83708108 38.0229189,7.46194595 39.2337297,7.516 L39.2337297,10.6738378 C38.6434595,10.6295135 38.3450811,10.3473514 37.9158919,9.93437838 C37.3591351,9.39924324 36.6672432,8.7332973 35.3472432,8.7332973 C34.0272432,8.7332973 33.3342703,9.39924324 32.7785946,9.93437838 C32.3104865,10.3851892 32.0012973,10.6824865 31.2964324,10.6824865 C30.5926486,10.6824865 30.2834595,10.3851892 29.8164324,9.93545946 C29.2607568,9.39924324 28.5688649,8.7332973 27.2488649,8.7332973 L27.2488649,5.57762162 Z M27.2488649,2.31708108 L39.2337297,2.31708108 L39.2337297,5.56789189 C38.6434595,5.52356757 38.3450811,5.24248649 37.9158919,4.82951351 C37.3591351,4.29437838 36.6672432,3.62735135 35.3472432,3.62735135 C34.0272432,3.62735135 33.3342703,4.29437838 32.7785946,4.82951351 C32.3104865,5.28032432 32.0012973,5.57762162 31.2964324,5.57762162 C30.5926486,5.57762162 30.2834595,5.28032432 29.8164324,4.83059459 C29.2607568,4.29437838 28.5688649,3.62735135 27.2488649,3.62735135 L27.2488649,2.31708108 Z M25.0121081,16.5387027 L41.4694054,16.5387027 L41.4694054,0.0814054054 L25.0121081,0.0814054054 L25.0121081,16.5387027 Z" id="Fill-3"></path>
                    <polygon id="Fill-5" points="8.53751351 33.8943784 2.37318919 26.3668108 0.000216216216 26.3668108 0.000216216216 38.7657297 2.83372973 38.7657297 2.83372973 31.2370811 9.01535135 38.7657297 11.3721081 38.7657297 11.3721081 26.3668108 8.53751351 26.3668108"></polygon>
                    <path d="M36.1989189,32.1052973 C35.5967568,31.8815135 34.8237838,31.6566486 33.8789189,31.4317838 C32.9697297,31.2317838 32.292973,31.0274595 31.8508108,30.820973 C31.4075676,30.6144865 31.1859459,30.2988108 31.1859459,29.8728649 C31.1859459,29.448 31.3783784,29.1063784 31.7621622,28.8458378 C32.1459459,28.5863784 32.7383784,28.4566486 33.5416216,28.4566486 C34.6875676,28.4566486 35.8335135,28.780973 36.9783784,29.4307027 L37.8637838,27.2523243 C37.2972973,26.8977297 36.6356757,26.6263784 35.88,26.4371892 C35.1243243,26.248 34.3502703,26.1539459 33.56,26.1539459 C32.4259459,26.1539459 31.467027,26.3247568 30.6810811,26.6674595 C29.8962162,27.0101622 29.3091892,27.4728649 28.9189189,28.0577297 C28.5297297,28.6425946 28.3340541,29.2955676 28.3340541,30.0155676 C28.3340541,30.8415135 28.5502703,31.5031351 28.9805405,31.9993514 C29.4118919,32.4944865 29.9286486,32.8555676 30.5308108,33.0793514 C31.132973,33.3042162 31.9059459,33.528 32.8518919,33.7528649 C33.4648649,33.8944865 33.9524324,34.0242162 34.3124324,34.1420541 C34.6724324,34.260973 34.9686486,34.4166486 35.1978378,34.6112432 C35.4281081,34.8058378 35.5437838,35.0512432 35.5437838,35.3463784 C35.5437838,35.7485405 35.3491892,36.0696216 34.9589189,36.3117838 C34.5697297,36.5539459 33.9675676,36.675027 33.1524324,36.675027 C32.4205405,36.675027 31.6875676,36.5571892 30.9556757,36.3204324 C30.2237838,36.0847568 29.5924324,35.7712432 29.0605405,35.3820541 L28.0864865,37.5431351 C28.6410811,37.968 29.3762162,38.3139459 30.2918919,38.5788108 C31.2064865,38.8447568 32.1545946,38.9777297 33.1351351,38.9777297 C34.2681081,38.9777297 35.2313514,38.8069189 36.0216216,38.4642162 C36.812973,38.1215135 37.4064865,37.6577297 37.8021622,37.0739459 C38.1978378,36.4890811 38.3956757,35.8425946 38.3956757,35.1344865 C38.3956757,34.3074595 38.1794595,33.6523243 37.7491892,33.168 C37.3178378,32.6836757 36.8010811,32.3290811 36.1989189,32.1052973" id="Fill-7"></path>
                    <path d="M62.6687568,32.4505946 C62.2201081,32.8224865 61.564973,33.0084324 60.7033514,33.0084324 L58.364973,33.0084324 L58.364973,28.7046486 L60.7033514,28.7046486 C61.564973,28.7046486 62.2201081,28.8905946 62.6687568,29.2624865 C63.1174054,29.6343784 63.3422703,30.1684324 63.3422703,30.8657297 C63.3422703,31.5500541 63.1174054,32.0787027 62.6687568,32.4505946 M63.7228108,26.9154595 C62.9141622,26.5500541 61.9606486,26.3662703 60.8622703,26.3662703 L55.4957838,26.3662703 L55.4957838,38.7651892 L58.364973,38.7651892 L58.364973,35.3468108 L60.8622703,35.3468108 C61.9606486,35.3468108 62.9141622,35.1662703 63.7228108,34.8062703 C64.5314595,34.4462703 65.1541622,33.9273514 65.5909189,33.2473514 C66.0287568,32.5684324 66.2471351,31.7749189 66.2471351,30.8657297 C66.2471351,29.9446486 66.0287568,29.1468108 65.5909189,28.4743784 C65.1541622,27.8008649 64.5314595,27.2819459 63.7228108,26.9154595" id="Fill-9"></path>
                </g>
            </g>
        </g>
    </g>
</svg>